<svg class="main-svg" xmlns="http://www.w3.org/2000/svg" xmlns:xlink="http://www.w3.org/1999/xlink" width="1000" height="700" viewBox="0 0 1000 700"><rect x="0" y="0" width="1000" height="700" style="fill: rgb(0, 0, 0); fill-opacity: 0;"/><defs id="defs-a74784"><g class="clips"><clipPath id="clipa74784xyplot" class="plotclip"><rect width="927.78" height="301.35"/></clipPath><clipPath id="clipa74784xy2plot" class="plotclip"><rect width="927.78" height="301.35"/></clipPath><clipPath id="clipa74784x2y3plot" class="plotclip"><rect width="927.78" height="301.35"/></clipPath><clipPath id="clipa74784x2y4plot" class="plotclip"><rect width="927.78" height="301.35"/></clipPath><clipPath class="axesclip" id="clipa74784x"><rect x="13" y="0" width="927.78" height="700"/></clipPath><clipPath class="axesclip" id="clipa74784y"><rect x="0" y="61" width="1000" height="301.35"/></clipPath><clipPath class="axesclip" id="clipa74784xy"><rect x="13" y="61" width="927.78" height="301.35"/></clipPath><clipPath class="axesclip" id="clipa74784y2"><rect x="0" y="61" width="1000" height="301.35"/></clipPath><clipPath class="axesclip" id="clipa74784xy2"><rect x="13" y="61" width="927.78" height="301.35"/></clipPath><clipPath class="axesclip" id="clipa74784y3"><rect x="0" y="374.65" width="1000" height="301.35"/></clipPath><clipPath class="axesclip" id="clipa74784xy3"><rect x="13" y="374.65" width="927.78" height="301.35"/></clipPath><clipPath class="axesclip" id="clipa74784y4"><rect x="0" y="374.65" width="1000" height="301.35"/></clipPath><clipPath class="axesclip" id="clipa74784xy4"><rect x="13" y="374.65" width="927.78" height="301.35"/></clipPath><clipPath class="axesclip" id="clipa74784x2"><rect x="13" y="0" width="927.78" height="700"/></clipPath><clipPath class="axesclip" id="clipa74784x2y"><rect x="13" y="61" width="927.78" height="301.35"/></clipPath><clipPath class="axesclip" id="clipa74784x2y2"><rect x="13" y="61" width="927.78" height="301.35"/></clipPath><clipPath class="axesclip" id="clipa74784x2y3"><rect x="13" y="374.65" width="927.78" height="301.35"/></clipPath><clipPath class="axesclip" id="clipa74784x2y4"><rect x="13" y="374.65" width="927.78" height="301.35"/></clipPath></g><g class="gradients"/></defs><g class="bglayer"><rect class="bg" x="13" y="61" width="927.78" height="301.35" style="fill: rgb(0, 0, 0); fill-opacity: 0; stroke-width: 0;"/><rect class="bg" x="13" y="374.65" width="927.78" height="301.35" style="fill: rgb(0, 0, 0); fill-opacity: 0; stroke-width: 0;"/></g><g class="layer-below"><g class="imagelayer"/><g class="shapelayer"/></g><g class="cartesianlayer"><g class="subplot xy"><g class="layer-subplot"><g class="shapelayer"/><g class="imagelayer"/></g><g class="gridlayer"><g class="x"/><g class="y"/><g class="y2"/></g><g class="zerolinelayer"><path class="yzl zl crisp" transform="translate(0,341.66)" d="M13,0h927.78" style="stroke: rgb(255, 255, 255); stroke-opacity: 1; stroke-width: 2px;"/><path class="y2zl zl crisp" transform="translate(0,312.65999999999997)" d="M13,0h927.78" style="stroke: rgb(255, 255, 255); stroke-opacity: 1; stroke-width: 2px;"/></g><path class="xlines-below"/><path class="ylines-below"/><g class="overlines-below"><path class="xy2-x"/><path class="xy2-y"/></g><g class="xaxislayer-below"/><g class="yaxislayer-below"/><g class="overaxes-below"><g class="xy2-x"/><g class="xy2-y"/></g><g class="plot" transform="translate(13, 61)" clip-path="url('#clipa74784xyplot')"><g class="scatterlayer mlayer"><g class="trace scatter trace1d4fbb" style="stroke-miterlimit: 2; opacity: 1;"><g class="fills"/><g class="errorbars"/><g class="lines"/><g class="points"><path class="point" transform="translate(52.01,280.66)" d="M4.5,0A4.5,4.5 0 1,1 0,-4.5A4.5,4.5 0 0,1 4.5,0Z" style="opacity: 1; stroke-width: 0px; fill: rgb(161, 218, 180); fill-opacity: 1;"/><path class="point" transform="translate(120.66,280.66)" d="M4.5,0A4.5,4.5 0 1,1 0,-4.5A4.5,4.5 0 0,1 4.5,0Z" style="opacity: 1; stroke-width: 0px; fill: rgb(161, 218, 180); fill-opacity: 1;"/><path class="point" transform="translate(189.31,280.66)" d="M4.5,0A4.5,4.5 0 1,1 0,-4.5A4.5,4.5 0 0,1 4.5,0Z" style="opacity: 1; stroke-width: 0px; fill: rgb(161, 218, 180); fill-opacity: 1;"/><path class="point" transform="translate(257.95,280.66)" d="M4.5,0A4.5,4.5 0 1,1 0,-4.5A4.5,4.5 0 0,1 4.5,0Z" style="opacity: 1; stroke-width: 0px; fill: rgb(161, 218, 180); fill-opacity: 1;"/><path class="point" transform="translate(326.6,280.66)" d="M4.5,0A4.5,4.5 0 1,1 0,-4.5A4.5,4.5 0 0,1 4.5,0Z" style="opacity: 1; stroke-width: 0px; fill: rgb(161, 218, 180); fill-opacity: 1;"/><path class="point" transform="translate(395.24,280.66)" d="M4.5,0A4.5,4.5 0 1,1 0,-4.5A4.5,4.5 0 0,1 4.5,0Z" style="opacity: 1; stroke-width: 0px; fill: rgb(161, 218, 180); fill-opacity: 1;"/><path class="point" transform="translate(463.89,280.66)" d="M4.5,0A4.5,4.5 0 1,1 0,-4.5A4.5,4.5 0 0,1 4.5,0Z" style="opacity: 1; stroke-width: 0px; fill: rgb(161, 218, 180); fill-opacity: 1;"/><path class="point" transform="translate(532.54,194)" d="M4.5,0A4.5,4.5 0 1,1 0,-4.5A4.5,4.5 0 0,1 4.5,0Z" style="opacity: 1; stroke-width: 0px; fill: rgb(161, 218, 180); fill-opacity: 1;"/><path class="point" transform="translate(601.18,194)" d="M4.5,0A4.5,4.5 0 1,1 0,-4.5A4.5,4.5 0 0,1 4.5,0Z" style="opacity: 1; stroke-width: 0px; fill: rgb(161, 218, 180); fill-opacity: 1;"/><path class="point" transform="translate(669.83,20.69)" d="M4.5,0A4.5,4.5 0 1,1 0,-4.5A4.5,4.5 0 0,1 4.5,0Z" style="opacity: 1; stroke-width: 0px; fill: rgb(161, 218, 180); fill-opacity: 1;"/><path class="point" transform="translate(738.47,107.35)" d="M4.5,0A4.5,4.5 0 1,1 0,-4.5A4.5,4.5 0 0,1 4.5,0Z" style="opacity: 1; stroke-width: 0px; fill: rgb(161, 218, 180); fill-opacity: 1;"/><path class="point" transform="translate(807.12,20.69)" d="M4.5,0A4.5,4.5 0 1,1 0,-4.5A4.5,4.5 0 0,1 4.5,0Z" style="opacity: 1; stroke-width: 0px; fill: rgb(161, 218, 180); fill-opacity: 1;"/><path class="point" transform="translate(875.77,20.69)" d="M4.5,0A4.5,4.5 0 1,1 0,-4.5A4.5,4.5 0 0,1 4.5,0Z" style="opacity: 1; stroke-width: 0px; fill: rgb(161, 218, 180); fill-opacity: 1;"/></g><g class="text"/></g></g></g><g class="overplot"><g class="xy2" transform="translate(13, 61)" clip-path="url('#clipa74784xy2plot')"><g class="scatterlayer mlayer"><g class="trace scatter trace29f8f6" style="stroke-miterlimit: 2; opacity: 1;"><g class="fills"/><g class="errorbars"/><g class="lines"><path class="js-line" d="M52.01,263.2L120.66,245.89L189.31,234.35L257.95,286.28L326.6,159.33L395.24,251.66L463.89,188.18L532.54,228.58L601.18,240.12L669.83,32.38L738.47,72.77L807.12,15.07L875.77,32.38" style="vector-effect: non-scaling-stroke; fill: none; stroke: rgb(161, 218, 180); stroke-opacity: 1; stroke-width: 2px; opacity: 1;"/></g><g class="points"/><g class="text"/></g></g></g></g><path class="xlines-above crisp" d="M12,362.85H941.78M12,60.5H941.78" style="fill: none; stroke-width: 1px; stroke: rgb(0, 0, 0); stroke-opacity: 1;"/><path class="ylines-above crisp" d="M12.5,61V362.35M941.28,61V362.35" style="fill: none; stroke-width: 1px; stroke: rgb(0, 0, 0); stroke-opacity: 1;"/><g class="overlines-above"><path class="xy2-x crisp" d="M0,0" style="fill: none;"/><path class="xy2-y crisp" d="M941.28,61V362.35M12.5,61V362.35" style="fill: none; stroke-width: 1px; stroke: rgb(0, 0, 0); stroke-opacity: 1;"/></g><g class="xaxislayer-above"/><g class="yaxislayer-above"><g class="ytick"><text text-anchor="end" x="8.8" y="5.6" transform="translate(0,341.66)" style="font-family: 'Utopia Std'; font-size: 16px; fill: rgb(42, 63, 95); fill-opacity: 1; white-space: pre;">0</text></g><g class="ytick"><text text-anchor="end" x="8.8" y="5.6" transform="translate(0,255)" style="font-family: 'Utopia Std'; font-size: 16px; fill: rgb(42, 63, 95); fill-opacity: 1; white-space: pre;">1</text></g><g class="ytick"><text text-anchor="end" x="8.8" y="5.6" transform="translate(0,168.35)" style="font-family: 'Utopia Std'; font-size: 16px; fill: rgb(42, 63, 95); fill-opacity: 1; white-space: pre;">2</text></g><g class="ytick"><text text-anchor="end" x="8.8" y="5.6" transform="translate(0,81.69)" style="font-family: 'Utopia Std'; font-size: 16px; fill: rgb(42, 63, 95); fill-opacity: 1; white-space: pre;">3</text></g></g><g class="overaxes-above"><g class="xy2-x"/><g class="xy2-y"><g class="y2tick"><text text-anchor="start" x="944.98" y="5.6" transform="translate(0,312.65999999999997)" style="font-family: 'Utopia Std'; font-size: 16px; fill: rgb(42, 63, 95); fill-opacity: 1; white-space: pre;">0</text></g><g class="y2tick"><text text-anchor="start" x="944.98" y="5.6" transform="translate(0,254.95)" style="font-family: 'Utopia Std'; font-size: 16px; fill: rgb(42, 63, 95); fill-opacity: 1; white-space: pre;">0.001</text></g><g class="y2tick"><text text-anchor="start" x="944.98" y="5.6" transform="translate(0,197.25)" style="font-family: 'Utopia Std'; font-size: 16px; fill: rgb(42, 63, 95); fill-opacity: 1; white-space: pre;">0.002</text></g><g class="y2tick"><text text-anchor="start" x="944.98" y="5.6" transform="translate(0,139.54000000000002)" style="font-family: 'Utopia Std'; font-size: 16px; fill: rgb(42, 63, 95); fill-opacity: 1; white-space: pre;">0.003</text></g><g class="y2tick"><text text-anchor="start" x="944.98" y="5.6" transform="translate(0,81.84)" style="font-family: 'Utopia Std'; font-size: 16px; fill: rgb(42, 63, 95); fill-opacity: 1; white-space: pre;">0.004</text></g></g></g></g><g class="subplot x2y3"><g class="layer-subplot"><g class="shapelayer"/><g class="imagelayer"/></g><g class="gridlayer"><g class="x2"/><g class="y3"/><g class="y4"/></g><g class="zerolinelayer"><path class="y3zl zl crisp" transform="translate(0,655.31)" d="M13,0h927.78" style="stroke: rgb(255, 255, 255); stroke-opacity: 1; stroke-width: 2px;"/><path class="y4zl zl crisp" transform="translate(0,655.28)" d="M13,0h927.78" style="stroke: rgb(255, 255, 255); stroke-opacity: 1; stroke-width: 2px;"/></g><path class="xlines-below"/><path class="ylines-below"/><g class="overlines-below"><path class="x2y4-x"/><path class="x2y4-y"/></g><g class="xaxislayer-below"/><g class="yaxislayer-below"/><g class="overaxes-below"><g class="x2y4-x"/><g class="x2y4-y"/></g><g class="plot" transform="translate(13, 374.65)" clip-path="url('#clipa74784x2y3plot')"><g class="scatterlayer mlayer"><g class="trace scatter trace8a088a" style="stroke-miterlimit: 2; opacity: 1;"><g class="fills"/><g class="errorbars"/><g class="lines"/><g class="points"><path class="point" transform="translate(52.01,280.66)" d="M0,2.55l2.55,2.55l2.55,-2.55l-2.55,-2.55l2.55,-2.55l-2.55,-2.55l-2.55,2.55l-2.55,-2.55l-2.55,2.55l2.55,2.55l-2.55,2.55l2.55,2.55Z" style="opacity: 1; stroke-width: 0px; fill: rgb(34, 94, 168); fill-opacity: 1;"/><path class="point" transform="translate(120.66,280.66)" d="M0,2.55l2.55,2.55l2.55,-2.55l-2.55,-2.55l2.55,-2.55l-2.55,-2.55l-2.55,2.55l-2.55,-2.55l-2.55,2.55l2.55,2.55l-2.55,2.55l2.55,2.55Z" style="opacity: 1; stroke-width: 0px; fill: rgb(34, 94, 168); fill-opacity: 1;"/><path class="point" transform="translate(189.31,280.66)" d="M0,2.55l2.55,2.55l2.55,-2.55l-2.55,-2.55l2.55,-2.55l-2.55,-2.55l-2.55,2.55l-2.55,-2.55l-2.55,2.55l2.55,2.55l-2.55,2.55l2.55,2.55Z" style="opacity: 1; stroke-width: 0px; fill: rgb(34, 94, 168); fill-opacity: 1;"/><path class="point" transform="translate(257.95,20.69)" d="M0,2.55l2.55,2.55l2.55,-2.55l-2.55,-2.55l2.55,-2.55l-2.55,-2.55l-2.55,2.55l-2.55,-2.55l-2.55,2.55l2.55,2.55l-2.55,2.55l2.55,2.55Z" style="opacity: 1; stroke-width: 0px; fill: rgb(34, 94, 168); fill-opacity: 1;"/><path class="point" transform="translate(326.6,20.69)" d="M0,2.55l2.55,2.55l2.55,-2.55l-2.55,-2.55l2.55,-2.55l-2.55,-2.55l-2.55,2.55l-2.55,-2.55l-2.55,2.55l2.55,2.55l-2.55,2.55l2.55,2.55Z" style="opacity: 1; stroke-width: 0px; fill: rgb(34, 94, 168); fill-opacity: 1;"/><path class="point" transform="translate(395.24,20.69)" d="M0,2.55l2.55,2.55l2.55,-2.55l-2.55,-2.55l2.55,-2.55l-2.55,-2.55l-2.55,2.55l-2.55,-2.55l-2.55,2.55l2.55,2.55l-2.55,2.55l2.55,2.55Z" style="opacity: 1; stroke-width: 0px; fill: rgb(34, 94, 168); fill-opacity: 1;"/><path class="point" transform="translate(463.89,20.69)" d="M0,2.55l2.55,2.55l2.55,-2.55l-2.55,-2.55l2.55,-2.55l-2.55,-2.55l-2.55,2.55l-2.55,-2.55l-2.55,2.55l2.55,2.55l-2.55,2.55l2.55,2.55Z" style="opacity: 1; stroke-width: 0px; fill: rgb(34, 94, 168); fill-opacity: 1;"/><path class="point" transform="translate(532.54,280.66)" d="M0,2.55l2.55,2.55l2.55,-2.55l-2.55,-2.55l2.55,-2.55l-2.55,-2.55l-2.55,2.55l-2.55,-2.55l-2.55,2.55l2.55,2.55l-2.55,2.55l2.55,2.55Z" style="opacity: 1; stroke-width: 0px; fill: rgb(34, 94, 168); fill-opacity: 1;"/><path class="point" transform="translate(601.18,280.66)" d="M0,2.55l2.55,2.55l2.55,-2.55l-2.55,-2.55l2.55,-2.55l-2.55,-2.55l-2.55,2.55l-2.55,-2.55l-2.55,2.55l2.55,2.55l-2.55,2.55l2.55,2.55Z" style="opacity: 1; stroke-width: 0px; fill: rgb(34, 94, 168); fill-opacity: 1;"/><path class="point" transform="translate(669.83,280.66)" d="M0,2.55l2.55,2.55l2.55,-2.55l-2.55,-2.55l2.55,-2.55l-2.55,-2.55l-2.55,2.55l-2.55,-2.55l-2.55,2.55l2.55,2.55l-2.55,2.55l2.55,2.55Z" style="opacity: 1; stroke-width: 0px; fill: rgb(34, 94, 168); fill-opacity: 1;"/><path class="point" transform="translate(738.47,280.66)" d="M0,2.55l2.55,2.55l2.55,-2.55l-2.55,-2.55l2.55,-2.55l-2.55,-2.55l-2.55,2.55l-2.55,-2.55l-2.55,2.55l2.55,2.55l-2.55,2.55l2.55,2.55Z" style="opacity: 1; stroke-width: 0px; fill: rgb(34, 94, 168); fill-opacity: 1;"/><path class="point" transform="translate(807.12,280.66)" d="M0,2.55l2.55,2.55l2.55,-2.55l-2.55,-2.55l2.55,-2.55l-2.55,-2.55l-2.55,2.55l-2.55,-2.55l-2.55,2.55l2.55,2.55l-2.55,2.55l2.55,2.55Z" style="opacity: 1; stroke-width: 0px; fill: rgb(34, 94, 168); fill-opacity: 1;"/><path class="point" transform="translate(875.77,280.66)" d="M0,2.55l2.55,2.55l2.55,-2.55l-2.55,-2.55l2.55,-2.55l-2.55,-2.55l-2.55,2.55l-2.55,-2.55l-2.55,2.55l2.55,2.55l-2.55,2.55l2.55,2.55Z" style="opacity: 1; stroke-width: 0px; fill: rgb(34, 94, 168); fill-opacity: 1;"/></g><g class="text"/></g></g></g><g class="overplot"><g class="x2y4" transform="translate(13, 374.65)" clip-path="url('#clipa74784x2y4plot')"><g class="scatterlayer mlayer"><g class="trace scatter traceb85ffd" style="stroke-miterlimit: 2; opacity: 1;"><g class="fills"/><g class="errorbars"/><g class="lines"><path class="js-line" d="M52.01,212.83L120.66,280.63L189.31,274.98L257.95,15.07L326.6,77.22L395.24,258.03L463.89,280.63L532.54,252.38L601.18,173.28L669.83,229.78L738.47,263.68L875.77,286.28" style="vector-effect: non-scaling-stroke; fill: none; stroke: rgb(34, 94, 168); stroke-opacity: 1; stroke-width: 2px; opacity: 1; stroke-dasharray: 9px, 9px;"/></g><g class="points"/><g class="text"/></g></g></g></g><path class="xlines-above crisp" d="M12,676.5H941.78M12,374.15H941.78" style="fill: none; stroke-width: 1px; stroke: rgb(0, 0, 0); stroke-opacity: 1;"/><path class="ylines-above crisp" d="M12.5,374.65V676M941.28,374.65V676" style="fill: none; stroke-width: 1px; stroke: rgb(0, 0, 0); stroke-opacity: 1;"/><g class="overlines-above"><path class="x2y4-x crisp" d="M0,0" style="fill: none;"/><path class="x2y4-y crisp" d="M941.28,374.65V676M12.5,374.65V676" style="fill: none; stroke-width: 1px; stroke: rgb(0, 0, 0); stroke-opacity: 1;"/></g><g class="xaxislayer-above"><g class="x2tick"><text text-anchor="middle" x="0" y="696.2" transform="translate(65.00999999999999,0)" style="font-family: 'Utopia Std'; font-size: 16px; fill: rgb(42, 63, 95); fill-opacity: 1; white-space: pre;">2004</text></g><g class="x2tick"><text text-anchor="middle" x="0" y="696.2" transform="translate(202.31,0)" style="font-family: 'Utopia Std'; font-size: 16px; fill: rgb(42, 63, 95); fill-opacity: 1; white-space: pre;">2006</text></g><g class="x2tick"><text text-anchor="middle" x="0" y="696.2" transform="translate(339.6,0)" style="font-family: 'Utopia Std'; font-size: 16px; fill: rgb(42, 63, 95); fill-opacity: 1; white-space: pre;">2008</text></g><g class="x2tick"><text text-anchor="middle" x="0" y="696.2" transform="translate(476.89,0)" style="font-family: 'Utopia Std'; font-size: 16px; fill: rgb(42, 63, 95); fill-opacity: 1; white-space: pre;">2010</text></g><g class="x2tick"><text text-anchor="middle" x="0" y="696.2" transform="translate(614.18,0)" style="font-family: 'Utopia Std'; font-size: 16px; fill: rgb(42, 63, 95); fill-opacity: 1; white-space: pre;">2012</text></g><g class="x2tick"><text text-anchor="middle" x="0" y="696.2" transform="translate(751.47,0)" style="font-family: 'Utopia Std'; font-size: 16px; fill: rgb(42, 63, 95); fill-opacity: 1; white-space: pre;">2014</text></g><g class="x2tick"><text text-anchor="middle" x="0" y="696.2" transform="translate(888.77,0)" style="font-family: 'Utopia Std'; font-size: 16px; fill: rgb(42, 63, 95); fill-opacity: 1; white-space: pre;">2016</text></g></g><g class="yaxislayer-above"><g class="y3tick"><text text-anchor="end" x="8.8" y="5.6" transform="translate(0,655.31)" style="font-family: 'Utopia Std'; font-size: 16px; fill: rgb(42, 63, 95); fill-opacity: 1; white-space: pre;">0</text></g><g class="y3tick"><text text-anchor="end" x="8.8" y="5.6" transform="translate(0,395.34)" style="font-family: 'Utopia Std'; font-size: 16px; fill: rgb(42, 63, 95); fill-opacity: 1; white-space: pre;">1</text></g></g><g class="overaxes-above"><g class="x2y4-x"/><g class="x2y4-y"><g class="y4tick"><text text-anchor="start" x="944.98" y="5.6" transform="translate(0,655.28)" style="font-family: 'Utopia Std'; font-size: 16px; fill: rgb(42, 63, 95); fill-opacity: 1; white-space: pre;">0</text></g><g class="y4tick"><text text-anchor="start" x="944.98" y="5.6" transform="translate(0,598.78)" style="font-family: 'Utopia Std'; font-size: 16px; fill: rgb(42, 63, 95); fill-opacity: 1; white-space: pre;">0.001</text></g><g class="y4tick"><text text-anchor="start" x="944.98" y="5.6" transform="translate(0,542.28)" style="font-family: 'Utopia Std'; font-size: 16px; fill: rgb(42, 63, 95); fill-opacity: 1; white-space: pre;">0.002</text></g><g class="y4tick"><text text-anchor="start" x="944.98" y="5.6" transform="translate(0,485.77)" style="font-family: 'Utopia Std'; font-size: 16px; fill: rgb(42, 63, 95); fill-opacity: 1; white-space: pre;">0.003</text></g><g class="y4tick"><text text-anchor="start" x="944.98" y="5.6" transform="translate(0,429.27)" style="font-family: 'Utopia Std'; font-size: 16px; fill: rgb(42, 63, 95); fill-opacity: 1; white-space: pre;">0.004</text></g></g></g></g><g class="subplot xy2"/><g class="subplot x2y4"/></g><g class="polarlayer"/><g class="ternarylayer"/><g class="geolayer"/><g class="funnelarealayer"/><g class="pielayer"/><g class="treemaplayer"/><g class="sunburstlayer"/><g class="glimages"/><defs id="topdefs-a74784"><g class="clips"/><clipPath id="legenda74784"><rect width="659" height="58" x="0" y="0"/></clipPath></defs><g class="layer-above"><g class="imagelayer"/><g class="shapelayer"/></g><g class="infolayer"><g class="legend" pointer-events="all" transform="translate(177, 0)"><rect class="bg" shape-rendering="crispEdges" width="659" height="58" x="0" y="0" style="stroke: rgb(68, 68, 68); stroke-opacity: 1; fill: rgb(0, 0, 0); fill-opacity: 0; stroke-width: 0px;"/><g class="scrollbox" transform="translate(0, 0)" clip-path="url('#legenda74784')"><g class="groups"><g class="traces" transform="translate(0, 16.9)" style="opacity: 1;"><text class="legendtext user-select-none" text-anchor="start" x="40" y="6.24" style="font-family: 'Utopia Std'; font-size: 16px; fill: rgb(42, 63, 95); fill-opacity: 1; white-space: pre;">count: "call special meet"            </text><g class="layers" style="opacity: 1;"><g class="legendfill"/><g class="legendlines"/><g class="legendsymbols"><g class="legendpoints"><path class="scatterpts" transform="translate(20,0)" d="M4.5,0A4.5,4.5 0 1,1 0,-4.5A4.5,4.5 0 0,1 4.5,0Z" style="opacity: 1; stroke-width: 0px; fill: rgb(161, 218, 180); fill-opacity: 1;"/></g></g></g><rect class="legendtoggle" pointer-events="all" x="0" y="-11.9" width="254.171875" height="23.8" style="cursor: pointer; fill: rgb(0, 0, 0); fill-opacity: 0;"/></g><g class="traces" transform="translate(329.09375, 16.9)" style="opacity: 1;"><text class="legendtext user-select-none" text-anchor="start" x="40" y="6.24" style="font-family: 'Utopia Std'; font-size: 16px; fill: rgb(42, 63, 95); fill-opacity: 1; white-space: pre;">coeficient: "call special meet" (RHS)            </text><g class="layers" style="opacity: 1;"><g class="legendfill"/><g class="legendlines"><path class="js-line" d="M5,0h30" style="fill: none; stroke: rgb(161, 218, 180); stroke-opacity: 1; stroke-width: 2px;"/></g><g class="legendsymbols"><g class="legendpoints"/></g></g><rect class="legendtoggle" pointer-events="all" x="0" y="-11.9" width="326.59375" height="23.8" style="cursor: pointer; fill: rgb(0, 0, 0); fill-opacity: 0;"/></g><g class="traces" transform="translate(0, 40.7)" style="opacity: 1;"><text class="legendtext user-select-none" text-anchor="start" x="40" y="6.24" style="font-family: 'Utopia Std'; font-size: 16px; fill: rgb(42, 63, 95); fill-opacity: 1; white-space: pre;">count: "declassify board"            </text><g class="layers" style="opacity: 1;"><g class="legendfill"/><g class="legendlines"/><g class="legendsymbols"><g class="legendpoints"><path class="scatterpts" transform="translate(20,0)" d="M0,2.55l2.55,2.55l2.55,-2.55l-2.55,-2.55l2.55,-2.55l-2.55,-2.55l-2.55,2.55l-2.55,-2.55l-2.55,2.55l2.55,2.55l-2.55,2.55l2.55,2.55Z" style="opacity: 1; stroke-width: 0px; fill: rgb(34, 94, 168); fill-opacity: 1;"/></g></g></g><rect class="legendtoggle" pointer-events="all" x="0" y="-11.9" width="251.109375" height="23.8" style="cursor: pointer; fill: rgb(0, 0, 0); fill-opacity: 0;"/></g><g class="traces" transform="translate(329.09375, 40.7)" style="opacity: 1;"><text class="legendtext user-select-none" text-anchor="start" x="40" y="6.24" style="font-family: 'Utopia Std'; font-size: 16px; fill: rgb(42, 63, 95); fill-opacity: 1; white-space: pre;">coeficient: "declassify board" (RHS)            </text><g class="layers" style="opacity: 1;"><g class="legendfill"/><g class="legendlines"><path class="js-line" d="M5,0h30" style="fill: none; stroke: rgb(34, 94, 168); stroke-opacity: 1; stroke-dasharray: 9px, 9px; stroke-width: 2px;"/></g><g class="legendsymbols"><g class="legendpoints"/></g></g><rect class="legendtoggle" pointer-events="all" x="0" y="-11.9" width="323.53125" height="23.8" style="cursor: pointer; fill: rgb(0, 0, 0); fill-opacity: 0;"/></g></g></g><rect class="scrollbar" rx="20" ry="3" width="0" height="0" x="0" y="0" style="fill: rgb(128, 139, 164); fill-opacity: 1;"/></g><g class="g-gtitle"/><g class="g-xtitle"/><g class="g-x2title"/><g class="g-ytitle"/><g class="g-y2title"/><g class="g-y3title"/><g class="g-y4title"/></g></svg>