<svg class="main-svg" xmlns="http://www.w3.org/2000/svg" xmlns:xlink="http://www.w3.org/1999/xlink" width="1000" height="500" viewBox="0 0 1000 500"><rect x="0" y="0" width="1000" height="500" style="fill: rgb(0, 0, 0); fill-opacity: 0;"/><defs id="defs-b5b20b"><g class="clips"><clipPath id="clipb5b20bxyplot" class="plotclip"><rect width="919" height="447"/></clipPath><clipPath class="axesclip" id="clipb5b20bx"><rect x="73" y="0" width="919" height="500"/></clipPath><clipPath class="axesclip" id="clipb5b20by"><rect x="0" y="1" width="1000" height="447"/></clipPath><clipPath class="axesclip" id="clipb5b20bxy"><rect x="73" y="1" width="919" height="447"/></clipPath></g><g class="gradients"/></defs><g class="bglayer"><rect class="bg" x="73" y="1" width="919" height="447" style="fill: rgb(0, 0, 0); fill-opacity: 0; stroke-width: 0;"/></g><g class="layer-below"><g class="imagelayer"/><g class="shapelayer"/></g><g class="cartesianlayer"><g class="subplot xy"><g class="layer-subplot"><g class="shapelayer"/><g class="imagelayer"/></g><g class="gridlayer"><g class="x"/><g class="y"/></g><g class="zerolinelayer"/><path class="xlines-below"/><path class="ylines-below"/><g class="overlines-below"/><g class="xaxislayer-below"/><g class="yaxislayer-below"/><g class="overaxes-below"/><g class="plot" transform="translate(73, 1)" clip-path="url('#clipb5b20bxyplot')"><g class="scatterlayer mlayer"><g class="trace scatter trace9ff8c9" style="stroke-miterlimit: 2; opacity: 1;"><g class="fills"/><g class="errorbars"/><g class="lines"><path class="js-line" d="M0,433.29L45.95,398.22L91.9,380.41L137.85,374.58L183.8,400.26L229.75,204.4L275.7,357.46L321.65,316.34L367.6,326.02L413.55,303.09L459.5,248.51L505.45,163.74L551.4,373.93L597.35,297.43L643.3,401.15L689.25,292.27L735.2,338.93L781.15,336.97L827.1,22.92L873.05,447L919,339.55L964.95,330.09L1010.9,326.65L1056.85,343.85L1148.75,435.54L1194.7,447L1240.65,378.23L1286.6,240.69L1332.55,-773.65L1378.5,447L1424.45,-68.77L1516.35,68.77L1700.15,412.62" style="vector-effect: non-scaling-stroke; fill: none; stroke: rgb(161, 218, 180); stroke-opacity: 1; stroke-width: 2px; opacity: 1;"/></g><g class="points"/><g class="text"/></g><g class="trace scatter trace2dd331" style="stroke-miterlimit: 2; opacity: 1;"><g class="fills"/><g class="errorbars"/><g class="lines"><path class="js-line" d="M0,434.36L45.95,431.92L91.9,425.12L137.85,397.15L183.8,409.21L229.75,401.93L275.7,411.91L321.65,405.91L367.6,430.4L413.55,418.68L459.5,412.62L505.45,418.87L551.4,422.44L597.35,430.95L643.3,347.67L689.25,378.23L735.2,425.12L781.15,447L827.1,232.1L873.05,289.81L919,421.21L964.95,412.62L1010.9,447L1056.85,435.54L1102.8,435.54L1148.75,395.42L1194.7,412.62L1240.65,447L1332.55,412.62L1378.5,343.85L1424.45,447L1470.4,447" style="vector-effect: non-scaling-stroke; fill: none; stroke: rgb(34, 94, 168); stroke-opacity: 1; stroke-width: 2px; opacity: 1; stroke-dasharray: 9px, 9px;"/></g><g class="points"/><g class="text"/></g></g></g><g class="overplot"/><path class="xlines-above crisp" d="M72,448.5H993M72,0.5H993" style="fill: none; stroke-width: 1px; stroke: rgb(0, 0, 0); stroke-opacity: 1;"/><path class="ylines-above crisp" d="M72.5,1V448M992.5,1V448" style="fill: none; stroke-width: 1px; stroke: rgb(0, 0, 0); stroke-opacity: 1;"/><g class="overlines-above"/><g class="xaxislayer-above"><g class="xtick"><text text-anchor="middle" x="0" y="468.2" transform="translate(73,0)" style="font-family: 'Utopia Std'; font-size: 16px; fill: rgb(42, 63, 95); fill-opacity: 1; white-space: pre;">0</text></g><g class="xtick"><text text-anchor="middle" x="0" y="468.2" transform="translate(256.8,0)" style="font-family: 'Utopia Std'; font-size: 16px; fill: rgb(42, 63, 95); fill-opacity: 1; white-space: pre;">2</text></g><g class="xtick"><text text-anchor="middle" x="0" y="468.2" transform="translate(440.6,0)" style="font-family: 'Utopia Std'; font-size: 16px; fill: rgb(42, 63, 95); fill-opacity: 1; white-space: pre;">4</text></g><g class="xtick"><text text-anchor="middle" x="0" y="468.2" transform="translate(624.4,0)" style="font-family: 'Utopia Std'; font-size: 16px; fill: rgb(42, 63, 95); fill-opacity: 1; white-space: pre;">6</text></g><g class="xtick"><text text-anchor="middle" x="0" y="468.2" transform="translate(808.2,0)" style="font-family: 'Utopia Std'; font-size: 16px; fill: rgb(42, 63, 95); fill-opacity: 1; white-space: pre;">8</text></g><g class="xtick"><text text-anchor="middle" x="0" y="468.2" transform="translate(992,0)" style="font-family: 'Utopia Std'; font-size: 16px; fill: rgb(42, 63, 95); fill-opacity: 1; white-space: pre;">10</text></g></g><g class="yaxislayer-above"><g class="ytick"><text text-anchor="end" x="68.8" y="5.6" transform="translate(0,448)" style="font-family: 'Utopia Std'; font-size: 16px; fill: rgb(42, 63, 95); fill-opacity: 1; white-space: pre;">0</text></g><g class="ytick"><text text-anchor="end" x="68.8" y="5.6" transform="translate(0,379.23)" style="font-family: 'Utopia Std'; font-size: 16px; fill: rgb(42, 63, 95); fill-opacity: 1; white-space: pre;">2</text></g><g class="ytick"><text text-anchor="end" x="68.8" y="5.6" transform="translate(0,310.46)" style="font-family: 'Utopia Std'; font-size: 16px; fill: rgb(42, 63, 95); fill-opacity: 1; white-space: pre;">4</text></g><g class="ytick"><text text-anchor="end" x="68.8" y="5.6" transform="translate(0,241.69)" style="font-family: 'Utopia Std'; font-size: 16px; fill: rgb(42, 63, 95); fill-opacity: 1; white-space: pre;">6</text></g><g class="ytick"><text text-anchor="end" x="68.8" y="5.6" transform="translate(0,172.92)" style="font-family: 'Utopia Std'; font-size: 16px; fill: rgb(42, 63, 95); fill-opacity: 1; white-space: pre;">8</text></g><g class="ytick"><text text-anchor="end" x="68.8" y="5.6" transform="translate(0,104.15)" style="font-family: 'Utopia Std'; font-size: 16px; fill: rgb(42, 63, 95); fill-opacity: 1; white-space: pre;">10</text></g><g class="ytick"><text text-anchor="end" x="68.8" y="5.6" transform="translate(0,35.38)" style="font-family: 'Utopia Std'; font-size: 16px; fill: rgb(42, 63, 95); fill-opacity: 1; white-space: pre;">12</text></g></g><g class="overaxes-above"/></g></g><g class="polarlayer"/><g class="ternarylayer"/><g class="geolayer"/><g class="funnelarealayer"/><g class="pielayer"/><g class="treemaplayer"/><g class="sunburstlayer"/><g class="glimages"/><defs id="topdefs-b5b20b"><g class="clips"/><clipPath id="legendb5b20b"><rect width="239" height="58" x="0" y="0"/></clipPath></defs><g class="layer-above"><g class="imagelayer"/><g class="shapelayer"/></g><g class="infolayer"><g class="legend" pointer-events="all" transform="translate(413, 23.35000000000002)"><rect class="bg" shape-rendering="crispEdges" width="239" height="58" x="0" y="0" style="stroke: rgb(68, 68, 68); stroke-opacity: 1; fill: rgb(0, 0, 0); fill-opacity: 0; stroke-width: 0px;"/><g class="scrollbox" transform="translate(0, 0)" clip-path="url('#legendb5b20b')"><g class="groups"><g class="traces" transform="translate(0, 16.9)" style="opacity: 1;"><text class="legendtext user-select-none" text-anchor="start" x="40" y="6.24" style="font-family: 'Utopia Std'; font-size: 16px; fill: rgb(42, 63, 95); fill-opacity: 1; white-space: pre;">text predicted AMGT > 0.5  </text><g class="layers" style="opacity: 1;"><g class="legendfill"/><g class="legendlines"><path class="js-line" d="M5,0h30" style="fill: none; stroke: rgb(161, 218, 180); stroke-opacity: 1; stroke-width: 2px;"/></g><g class="legendsymbols"><g class="legendpoints"/></g></g><rect class="legendtoggle" pointer-events="all" x="0" y="-11.9" width="233.578125" height="23.8" style="cursor: pointer; fill: rgb(0, 0, 0); fill-opacity: 0;"/></g><g class="traces" transform="translate(0, 40.7)" style="opacity: 1;"><text class="legendtext user-select-none" text-anchor="start" x="40" y="6.24" style="font-family: 'Utopia Std'; font-size: 16px; fill: rgb(42, 63, 95); fill-opacity: 1; white-space: pre;">text predicted AMGT &#60;= 0.5  </text><g class="layers" style="opacity: 1;"><g class="legendfill"/><g class="legendlines"><path class="js-line" d="M5,0h30" style="fill: none; stroke: rgb(34, 94, 168); stroke-opacity: 1; stroke-dasharray: 9px, 9px; stroke-width: 2px;"/></g><g class="legendsymbols"><g class="legendpoints"/></g></g><rect class="legendtoggle" pointer-events="all" x="0" y="-11.9" width="233.578125" height="23.8" style="cursor: pointer; fill: rgb(0, 0, 0); fill-opacity: 0;"/></g></g></g><rect class="scrollbar" rx="20" ry="3" width="0" height="0" x="0" y="0" style="fill: rgb(128, 139, 164); fill-opacity: 1;"/></g><g class="g-gtitle"/><g class="g-xtitle" transform="translate(0,-5.284375000000011)"><text class="xtitle" x="532.5" y="500.4875" text-anchor="middle" style="font-family: 'Utopia Std'; font-size: 19px; fill: rgb(42, 63, 95); opacity: 1; font-weight: normal; white-space: pre;">Fund family's holding in target (%)</text></g><g class="g-ytitle" transform="translate(17,0)"><text class="ytitle" transform="rotate(-90,-0.203125,224.5)" x="-0.203125" y="224.5" text-anchor="middle" style="font-family: 'Utopia Std'; font-size: 19px; fill: rgb(42, 63, 95); opacity: 1; font-weight: normal; white-space: pre;"><tspan class="line" dy="0em" x="-0.203125" y="224.5">Fund family attack views </tspan><tspan class="line" dy="1.3em" x="-0.203125" y="224.5">(av. at each 0.5% holding)</tspan></text></g></g></svg>