<svg class="main-svg" xmlns="http://www.w3.org/2000/svg" xmlns:xlink="http://www.w3.org/1999/xlink" width="700" height="500" viewBox="0 0 700 500"><rect x="0" y="0" width="700" height="500" style="fill: rgb(0, 0, 0); fill-opacity: 0;"/><defs id="defs-6ae4a9"><g class="clips"/><g class="gradients"/></defs><g class="bglayer"/><g class="layer-below"><g class="imagelayer"/><g class="shapelayer"/></g><g class="cartesianlayer"/><g class="polarlayer"/><g class="ternarylayer"/><g class="geolayer"/><g class="funnelarealayer"/><g class="pielayer"><g class="trace" stroke-linejoin="round" style="opacity: 1;"><g class="slice"><path class="surface" d="M414.0499507477918,253.2622846958152a63,63 0 0 0 -50.04995074779181,-101.26228469581521l0,-147a210,210 0 0 1 166.83316915930604,337.5409489860507Z" style="pointer-events: all; stroke-width: 0.3; fill: rgb(12, 44, 132); fill-opacity: 1; stroke: rgb(0, 0, 0); stroke-opacity: 1;"/><g class="slicetext"><text data-notex="1" class="slicetext" transform="translate(498.99788934346475,208.3984375)" text-anchor="middle" x="0" y="0" style="font-family: 'Utopia Std'; font-size: 20px; fill: rgb(255, 255, 255); fill-opacity: 1; white-space: pre;"><tspan class="line" dy="0em" x="0" y="0">Vanguard</tspan><tspan class="line" dy="1.3em" x="0" y="0">155</tspan></text></g></g><g class="slice"><path class="surface" d="M364,152a63,63 0 0 0 -46.57546498248137,20.576821645877924l-108.67608495912319,-98.98741615961816a210,210 0 0 1 155.25154994160457,-68.58940548625975Z" style="pointer-events: all; stroke-width: 0.3; fill: rgb(34, 94, 168); fill-opacity: 1; stroke: rgb(0, 0, 0); stroke-opacity: 1;"/><g class="slicetext"><text data-notex="1" class="slicetext" transform="translate(309.4501385202221,75.19094893168696)rotate(66.16438356164383)" text-anchor="middle" x="0" y="0" style="font-family: 'Utopia Std'; font-size: 20px; fill: rgb(255, 255, 255); fill-opacity: 1; white-space: pre;"><tspan class="line" dy="0em" x="0" y="0">Fidelity</tspan><tspan class="line" dy="1.3em" x="0" y="0">58</tspan></text></g></g><g class="slice"><path class="surface" d="M317.4245350175186,172.57682164587794a63,63 0 0 0 -16.422914475798333,42.875047395551135l-146.99621873598596,1.0543610966678052a210,210 0 0 1 54.74304825266111,-142.91682465183712Z" style="pointer-events: all; stroke-width: 0.3; fill: rgb(29, 145, 192); fill-opacity: 1; stroke: rgb(0, 0, 0); stroke-opacity: 1;"/><g class="slicetext"><text data-notex="1" class="slicetext" transform="translate(212.61934145334757,149.94566763834197)rotate(20.95890410958907)" text-anchor="middle" x="0" y="0" style="font-family: 'Utopia Std'; font-size: 20px; fill: rgb(255, 255, 255); fill-opacity: 1; white-space: pre;"><tspan class="line" dy="0em" x="0" y="0">PNC</tspan><tspan class="line" dy="1.3em" x="0" y="0">52</tspan></text></g></g><g class="slice"><path class="surface" d="M301.0016205417203,215.45186904142906a63,63 0 0 0 4.837293530975296,23.76151741641102l-135.7092004970436,56.49790173496018a210,210 0 0 1 -16.124311769917654,-79.2050580547034Z" style="pointer-events: all; stroke-width: 0.3; fill: rgb(65, 182, 196); fill-opacity: 1; stroke: rgb(0, 0, 0); stroke-opacity: 1;"/><g class="slicetext"><text data-notex="1" class="slicetext" transform="translate(182.66742084642226,245.1781353040724)rotate(-11.506849315068507)" text-anchor="middle" x="0" y="0" style="font-family: 'Utopia Std'; font-size: 20px; fill: rgb(68, 68, 68); fill-opacity: 1; white-space: pre;"><tspan class="line" dy="0em" x="0" y="0">DFA</tspan><tspan class="line" dy="1.3em" x="0" y="0">27</tspan></text></g></g><g class="slice"><path class="surface" d="M305.8389140726956,239.21338645784007a63,63 0 0 0 6.511346745575071,11.860211123484317l-120.51605809070178,84.17172768975692a210,210 0 0 1 -21.704489151916903,-39.53403707828106Z" style="pointer-events: all; stroke-width: 0.3; fill: rgb(127, 205, 187); fill-opacity: 1; stroke: rgb(0, 0, 0); stroke-opacity: 1;"/><g class="slicetext"><text data-notex="1" class="slicetext" transform="translate(132.83554518939604,315.0647879168497)" text-anchor="middle" x="0" y="0" style="font-family: 'Utopia Std'; font-size: 20px; fill: rgb(42, 63, 95); fill-opacity: 1; white-space: pre;"><tspan class="line" dy="0em" x="0" y="0">LMason</tspan><tspan class="line" dy="1.3em" x="0" y="0">15</tspan></text></g></g><g class="slice"><path class="surface" d="M312.35026081827067,251.0735975813244a63,63 0 0 0 8.234259466702541,9.578304034206335l-101.30278600172917,106.52110376957171a210,210 0 0 1 -27.44753155567514,-31.927680114021115Z" style="pointer-events: all; stroke-width: 0.3; fill: rgb(199, 233, 180); fill-opacity: 1; stroke: rgb(0, 0, 0); stroke-opacity: 1;"/><g class="slicetext"><text data-notex="1" class="slicetext" transform="translate(141.20499896950187,363.4554129168497)" text-anchor="middle" x="0" y="0" style="font-family: 'Utopia Std'; font-size: 20px; fill: rgb(42, 63, 95); fill-opacity: 1; white-space: pre;"><tspan class="line" dy="0em" x="0" y="0">Trowe Price</tspan><tspan class="line" dy="1.3em" x="0" y="0">14</tspan></text></g><path class="textline" stroke-width="2" d="M204.75578021950187,351.89878913452964V370.0569754168497h-12.09765625" fill="none" style="stroke: rgb(42, 63, 95); stroke-opacity: 1;"/></g><g class="slice"><path class="surface" d="M320.5845202849732,260.65190161553073a63,63 0 0 0 9.979486680824971,7.743176526717613l-78.01731707980424,124.58851566524613a210,210 0 0 1 -33.26495560274991,-25.810588422392044Z" style="pointer-events: all; stroke-width: 0.3; fill: rgb(237, 248, 177); fill-opacity: 1; stroke: rgb(0, 0, 0); stroke-opacity: 1;"/><g class="slicetext"><text data-notex="1" class="slicetext" transform="translate(170.98056049731903,411.8460379168497)" text-anchor="middle" x="0" y="0" style="font-family: 'Utopia Std'; font-size: 20px; fill: rgb(42, 63, 95); fill-opacity: 1; white-space: pre;"><tspan class="line" dy="0em" x="0" y="0">FTempleton</tspan><tspan class="line" dy="1.3em" x="0" y="0">14</tspan></text></g><path class="textline" stroke-width="2" d="M235.26571674731903,380.9140871518103V418.4476004168497h-12.09765625" fill="none" style="stroke: rgb(42, 63, 95); stroke-opacity: 1;"/></g><g class="slice"><path class="surface" d="M330.56400696579817,268.39507814224834a63,63 0 0 0 83.4859437819936,-15.132793446433112l116.78321841151416,89.27866429023554a210,210 0 0 1 -278.286479273312,50.44264482144371Z" style="pointer-events: all; stroke-width: 0.3; fill: rgb(255, 255, 217); fill-opacity: 1; stroke: rgb(0, 0, 0); stroke-opacity: 1;"/><g class="slicetext"><text data-notex="1" class="slicetext" transform="translate(394.12048502533423,344.1578187281318)rotate(79.72602739726028)" text-anchor="middle" x="0" y="0" style="font-family: 'Utopia Std'; font-size: 20px; fill: rgb(68, 68, 68); fill-opacity: 1; white-space: pre;"><tspan class="line" dy="0em" x="0" y="0">Others</tspan><tspan class="line" dy="1.3em" x="0" y="0">103</tspan></text></g></g></g></g><g class="treemaplayer"/><g class="sunburstlayer"/><g class="glimages"/><defs id="topdefs-6ae4a9"><g class="clips"/></defs><g class="layer-above"><g class="imagelayer"/><g class="shapelayer"/></g><g class="infolayer"><g class="g-gtitle"/><g class="annotation" data-index="0" style="opacity: 1;"><g class="annotation-text-g" transform="rotate(0,364,215)"><g class="cursor-pointer" transform="translate(342, 202)"><rect class="bg" x="0.5" y="0.5" width="44" height="25" style="stroke-width: 1px; stroke: rgb(0, 0, 0); stroke-opacity: 0; fill: rgb(0, 0, 0); fill-opacity: 0;"/><text class="annotation-text" text-anchor="middle" x="22.796875" y="19.59375" style="font-family: 'Utopia Std'; font-size: 20px; fill: rgb(42, 63, 95); fill-opacity: 1; white-space: pre;">#438</text></g></g></g></g></svg>