<svg class="main-svg" xmlns="http://www.w3.org/2000/svg" xmlns:xlink="http://www.w3.org/1999/xlink" width="1000" height="500" viewBox="0 0 1000 500"><rect x="0" y="0" width="1000" height="500" style="fill: rgb(0, 0, 0); fill-opacity: 0;"/><defs id="defs-ed5142"><g class="clips"><clipPath id="cliped5142xyplot" class="plotclip"><rect width="914" height="407"/></clipPath><clipPath class="axesclip" id="cliped5142x"><rect x="85" y="0" width="914" height="500"/></clipPath><clipPath class="axesclip" id="cliped5142y"><rect x="0" y="41" width="1000" height="407"/></clipPath><clipPath class="axesclip" id="cliped5142xy"><rect x="85" y="41" width="914" height="407"/></clipPath></g><g class="gradients"/></defs><g class="bglayer"><rect class="bg" x="85" y="41" width="914" height="407" style="fill: rgb(0, 0, 0); fill-opacity: 0; stroke-width: 0;"/></g><g class="layer-below"><g class="imagelayer"/><g class="shapelayer"/></g><g class="cartesianlayer"><g class="subplot xy"><g class="layer-subplot"><g class="shapelayer"/><g class="imagelayer"/></g><g class="gridlayer"><g class="x"/><g class="y"/></g><g class="zerolinelayer"/><path class="xlines-below"/><path class="ylines-below"/><g class="overlines-below"/><g class="xaxislayer-below"/><g class="yaxislayer-below"/><g class="overaxes-below"/><g class="plot" transform="translate(85, 41)" clip-path="url('#cliped5142xyplot')"><g class="scatterlayer mlayer"><g class="trace scatter trace4e37d3" style="stroke-miterlimit: 2; opacity: 1;"><g class="fills"/><g class="errorbars"/><g class="lines"/><g class="points"><path class="point" transform="translate(92.67,265.03)" d="M37.58,0A37.58,37.58 0 1,1 0,-37.58A37.58,37.58 0 0,1 37.58,0Z" style="opacity: 0.7; stroke-width: 1px; fill: rgb(0, 0, 0); fill-opacity: 0; stroke: rgb(0, 0, 0); stroke-opacity: 1;"/><path class="point" transform="translate(170.06,272.26)" d="M19.58,0A19.58,19.58 0 1,1 0,-19.58A19.58,19.58 0 0,1 19.58,0Z" style="opacity: 0.7; stroke-width: 1px; fill: rgb(0, 0, 0); fill-opacity: 0; stroke: rgb(0, 0, 0); stroke-opacity: 1;"/><path class="point" transform="translate(215.33,278.69)" d="M15.8,0A15.8,15.8 0 1,1 0,-15.8A15.8,15.8 0 0,1 15.8,0Z" style="opacity: 0.7; stroke-width: 1px; fill: rgb(0, 0, 0); fill-opacity: 0; stroke: rgb(0, 0, 0); stroke-opacity: 1;"/><path class="point" transform="translate(247.45,269.24)" d="M13.03,0A13.03,13.03 0 1,1 0,-13.03A13.03,13.03 0 0,1 13.03,0Z" style="opacity: 0.7; stroke-width: 1px; fill: rgb(0, 0, 0); fill-opacity: 0; stroke: rgb(0, 0, 0); stroke-opacity: 1;"/><path class="point" transform="translate(272.36,265.16)" d="M9.98,0A9.98,9.98 0 1,1 0,-9.98A9.98,9.98 0 0,1 9.98,0Z" style="opacity: 0.7; stroke-width: 1px; fill: rgb(0, 0, 0); fill-opacity: 0; stroke: rgb(0, 0, 0); stroke-opacity: 1;"/><path class="point" transform="translate(292.72,250.61)" d="M9.18,0A9.18,9.18 0 1,1 0,-9.18A9.18,9.18 0 0,1 9.18,0Z" style="opacity: 0.7; stroke-width: 1px; fill: rgb(0, 0, 0); fill-opacity: 0; stroke: rgb(0, 0, 0); stroke-opacity: 1;"/><path class="point" transform="translate(309.93,261.05)" d="M7.43,0A7.43,7.43 0 1,1 0,-7.43A7.43,7.43 0 0,1 7.43,0Z" style="opacity: 0.7; stroke-width: 1px; fill: rgb(0, 0, 0); fill-opacity: 0; stroke: rgb(0, 0, 0); stroke-opacity: 1;"/><path class="point" transform="translate(324.84,233.81)" d="M6.5,0A6.5,6.5 0 1,1 0,-6.5A6.5,6.5 0 0,1 6.5,0Z" style="opacity: 0.7; stroke-width: 1px; fill: rgb(0, 0, 0); fill-opacity: 0; stroke: rgb(0, 0, 0); stroke-opacity: 1;"/><path class="point" transform="translate(337.99,234.79)" d="M6.4,0A6.4,6.4 0 1,1 0,-6.4A6.4,6.4 0 0,1 6.4,0Z" style="opacity: 0.7; stroke-width: 1px; fill: rgb(0, 0, 0); fill-opacity: 0; stroke: rgb(0, 0, 0); stroke-opacity: 1;"/><path class="point" transform="translate(349.75,264.75)" d="M24.08,0A24.08,24.08 0 1,1 0,-24.08A24.08,24.08 0 0,1 24.08,0Z" style="opacity: 0.7; stroke-width: 1px; fill: rgb(0, 0, 0); fill-opacity: 0; stroke: rgb(0, 0, 0); stroke-opacity: 1;"/><path class="point" transform="translate(427.14,245.68)" d="M25.13,0A25.13,25.13 0 1,1 0,-25.13A25.13,25.13 0 0,1 25.13,0Z" style="opacity: 0.7; stroke-width: 1px; fill: rgb(0, 0, 0); fill-opacity: 0; stroke: rgb(0, 0, 0); stroke-opacity: 1;"/><path class="point" transform="translate(472.42,236.11)" d="M14.78,0A14.78,14.78 0 1,1 0,-14.78A14.78,14.78 0 0,1 14.78,0Z" style="opacity: 0.7; stroke-width: 1px; fill: rgb(0, 0, 0); fill-opacity: 0; stroke: rgb(0, 0, 0); stroke-opacity: 1;"/><path class="point" transform="translate(504.54,249.35)" d="M8.9,0A8.9,8.9 0 1,1 0,-8.9A8.9,8.9 0 0,1 8.9,0Z" style="opacity: 0.7; stroke-width: 1px; fill: rgb(0, 0, 0); fill-opacity: 0; stroke: rgb(0, 0, 0); stroke-opacity: 1;"/><path class="point" transform="translate(529.45,208.44)" d="M6.15,0A6.15,6.15 0 1,1 0,-6.15A6.15,6.15 0 0,1 6.15,0Z" style="opacity: 0.7; stroke-width: 1px; fill: rgb(0, 0, 0); fill-opacity: 0; stroke: rgb(0, 0, 0); stroke-opacity: 1;"/><path class="point" transform="translate(549.81,229.83)" d="M4.15,0A4.15,4.15 0 1,1 0,-4.15A4.15,4.15 0 0,1 4.15,0Z" style="opacity: 0.7; stroke-width: 1px; fill: rgb(0, 0, 0); fill-opacity: 0; stroke: rgb(0, 0, 0); stroke-opacity: 1;"/><path class="point" transform="translate(567.02,229.02)" d="M3.88,0A3.88,3.88 0 1,1 0,-3.88A3.88,3.88 0 0,1 3.88,0Z" style="opacity: 0.7; stroke-width: 1px; fill: rgb(0, 0, 0); fill-opacity: 0; stroke: rgb(0, 0, 0); stroke-opacity: 1;"/><path class="point" transform="translate(581.93,247.2)" d="M2.93,0A2.93,2.93 0 1,1 0,-2.93A2.93,2.93 0 0,1 2.93,0Z" style="opacity: 0.7; stroke-width: 1px; fill: rgb(0, 0, 0); fill-opacity: 0; stroke: rgb(0, 0, 0); stroke-opacity: 1;"/><path class="point" transform="translate(595.08,295.68)" d="M2.5,0A2.5,2.5 0 1,1 0,-2.5A2.5,2.5 0 0,1 2.5,0Z" style="opacity: 0.7; stroke-width: 1px; fill: rgb(0, 0, 0); fill-opacity: 0; stroke: rgb(0, 0, 0); stroke-opacity: 1;"/><path class="point" transform="translate(606.84,228.25)" d="M9.95,0A9.95,9.95 0 1,1 0,-9.95A9.95,9.95 0 0,1 9.95,0Z" style="opacity: 0.7; stroke-width: 1px; fill: rgb(0, 0, 0); fill-opacity: 0; stroke: rgb(0, 0, 0); stroke-opacity: 1;"/><path class="point" transform="translate(684.23,241.84)" d="M10.53,0A10.53,10.53 0 1,1 0,-10.53A10.53,10.53 0 0,1 10.53,0Z" style="opacity: 0.7; stroke-width: 1px; fill: rgb(0, 0, 0); fill-opacity: 0; stroke: rgb(0, 0, 0); stroke-opacity: 1;"/><path class="point" transform="translate(729.5,209.7)" d="M5.3,0A5.3,5.3 0 1,1 0,-5.3A5.3,5.3 0 0,1 5.3,0Z" style="opacity: 0.7; stroke-width: 1px; fill: rgb(0, 0, 0); fill-opacity: 0; stroke: rgb(0, 0, 0); stroke-opacity: 1;"/><path class="point" transform="translate(761.62,246.42)" d="M3.23,0A3.23,3.23 0 1,1 0,-3.23A3.23,3.23 0 0,1 3.23,0Z" style="opacity: 0.7; stroke-width: 1px; fill: rgb(0, 0, 0); fill-opacity: 0; stroke: rgb(0, 0, 0); stroke-opacity: 1;"/><path class="point" transform="translate(786.53,236.04)" d="M2.8,0A2.8,2.8 0 1,1 0,-2.8A2.8,2.8 0 0,1 2.8,0Z" style="opacity: 0.7; stroke-width: 1px; fill: rgb(0, 0, 0); fill-opacity: 0; stroke: rgb(0, 0, 0); stroke-opacity: 1;"/><path class="point" transform="translate(806.89,185.47)" d="M2.5,0A2.5,2.5 0 1,1 0,-2.5A2.5,2.5 0 0,1 2.5,0Z" style="opacity: 0.7; stroke-width: 1px; fill: rgb(0, 0, 0); fill-opacity: 0; stroke: rgb(0, 0, 0); stroke-opacity: 1;"/><path class="point" transform="translate(824.1,208.34)" d="M2.5,0A2.5,2.5 0 1,1 0,-2.5A2.5,2.5 0 0,1 2.5,0Z" style="opacity: 0.7; stroke-width: 1px; fill: rgb(0, 0, 0); fill-opacity: 0; stroke: rgb(0, 0, 0); stroke-opacity: 1;"/><path class="point" transform="translate(839.01,210.99)" d="M2.5,0A2.5,2.5 0 1,1 0,-2.5A2.5,2.5 0 0,1 2.5,0Z" style="opacity: 0.7; stroke-width: 1px; fill: rgb(0, 0, 0); fill-opacity: 0; stroke: rgb(0, 0, 0); stroke-opacity: 1;"/><path class="point" transform="translate(852.16,296.64)" d="M2.5,0A2.5,2.5 0 1,1 0,-2.5A2.5,2.5 0 0,1 2.5,0Z" style="opacity: 0.7; stroke-width: 1px; fill: rgb(0, 0, 0); fill-opacity: 0; stroke: rgb(0, 0, 0); stroke-opacity: 1;"/><path class="point" transform="translate(863.93,102.99)" d="M2.5,0A2.5,2.5 0 1,1 0,-2.5A2.5,2.5 0 0,1 2.5,0Z" style="opacity: 0.7; stroke-width: 1px; fill: rgb(0, 0, 0); fill-opacity: 0; stroke: rgb(0, 0, 0); stroke-opacity: 1;"/></g><g class="text"/></g><g class="trace scatter tracec3d61f" style="stroke-miterlimit: 2; opacity: 1;"><g class="fills"/><g class="errorbars"/><g class="lines"/><g class="points"><path class="point" transform="translate(92.67,294.73)" d="M0,1.98l1.98,1.98l1.98,-1.98l-1.98,-1.98l1.98,-1.98l-1.98,-1.98l-1.98,1.98l-1.98,-1.98l-1.98,1.98l1.98,1.98l-1.98,1.98l1.98,1.98Z" style="opacity: 0.7; stroke-width: 1px; fill: rgb(34, 94, 168); fill-opacity: 1; stroke: rgb(34, 94, 168); stroke-opacity: 1;"/><path class="point" transform="translate(272.36,312.25)" d="M0,1.98l1.98,1.98l1.98,-1.98l-1.98,-1.98l1.98,-1.98l-1.98,-1.98l-1.98,1.98l-1.98,-1.98l-1.98,1.98l1.98,1.98l-1.98,1.98l1.98,1.98Z" style="opacity: 0.7; stroke-width: 1px; fill: rgb(34, 94, 168); fill-opacity: 1; stroke: rgb(34, 94, 168); stroke-opacity: 1;"/><path class="point" transform="translate(349.75,288.73)" d="M0,1.98l1.98,1.98l1.98,-1.98l-1.98,-1.98l1.98,-1.98l-1.98,-1.98l-1.98,1.98l-1.98,-1.98l-1.98,1.98l1.98,1.98l-1.98,1.98l1.98,1.98Z" style="opacity: 0.7; stroke-width: 1px; fill: rgb(34, 94, 168); fill-opacity: 1; stroke: rgb(34, 94, 168); stroke-opacity: 1;"/><path class="point" transform="translate(529.45,281.03)" d="M0,1.98l1.98,1.98l1.98,-1.98l-1.98,-1.98l1.98,-1.98l-1.98,-1.98l-1.98,1.98l-1.98,-1.98l-1.98,1.98l1.98,1.98l-1.98,1.98l1.98,1.98Z" style="opacity: 0.7; stroke-width: 1px; fill: rgb(34, 94, 168); fill-opacity: 1; stroke: rgb(34, 94, 168); stroke-opacity: 1;"/><path class="point" transform="translate(606.84,382.28)" d="M0,1.98l1.98,1.98l1.98,-1.98l-1.98,-1.98l1.98,-1.98l-1.98,-1.98l-1.98,1.98l-1.98,-1.98l-1.98,1.98l1.98,1.98l-1.98,1.98l1.98,1.98Z" style="opacity: 0.7; stroke-width: 1px; fill: rgb(34, 94, 168); fill-opacity: 1; stroke: rgb(34, 94, 168); stroke-opacity: 1;"/><path class="point" transform="translate(684.23,223.3)" d="M0,1.98l1.98,1.98l1.98,-1.98l-1.98,-1.98l1.98,-1.98l-1.98,-1.98l-1.98,1.98l-1.98,-1.98l-1.98,1.98l1.98,1.98l-1.98,1.98l1.98,1.98Z" style="opacity: 0.7; stroke-width: 1px; fill: rgb(34, 94, 168); fill-opacity: 1; stroke: rgb(34, 94, 168); stroke-opacity: 1;"/><path class="point" transform="translate(729.5,215.76)" d="M0,1.98l1.98,1.98l1.98,-1.98l-1.98,-1.98l1.98,-1.98l-1.98,-1.98l-1.98,1.98l-1.98,-1.98l-1.98,1.98l1.98,1.98l-1.98,1.98l1.98,1.98Z" style="opacity: 0.7; stroke-width: 1px; fill: rgb(34, 94, 168); fill-opacity: 1; stroke: rgb(34, 94, 168); stroke-opacity: 1;"/><path class="point" transform="translate(761.62,198.84)" d="M0,1.98l1.98,1.98l1.98,-1.98l-1.98,-1.98l1.98,-1.98l-1.98,-1.98l-1.98,1.98l-1.98,-1.98l-1.98,1.98l1.98,1.98l-1.98,1.98l1.98,1.98Z" style="opacity: 0.7; stroke-width: 1px; fill: rgb(34, 94, 168); fill-opacity: 1; stroke: rgb(34, 94, 168); stroke-opacity: 1;"/><path class="point" transform="translate(786.53,221.19)" d="M0,1.98l1.98,1.98l1.98,-1.98l-1.98,-1.98l1.98,-1.98l-1.98,-1.98l-1.98,1.98l-1.98,-1.98l-1.98,1.98l1.98,1.98l-1.98,1.98l1.98,1.98Z" style="opacity: 0.7; stroke-width: 1px; fill: rgb(34, 94, 168); fill-opacity: 1; stroke: rgb(34, 94, 168); stroke-opacity: 1;"/><path class="point" transform="translate(806.89,136.13)" d="M0,1.98l1.98,1.98l1.98,-1.98l-1.98,-1.98l1.98,-1.98l-1.98,-1.98l-1.98,1.98l-1.98,-1.98l-1.98,1.98l1.98,1.98l-1.98,1.98l1.98,1.98Z" style="opacity: 0.7; stroke-width: 1px; fill: rgb(34, 94, 168); fill-opacity: 1; stroke: rgb(34, 94, 168); stroke-opacity: 1;"/><path class="point" transform="translate(824.1,100.36)" d="M0,1.98l1.98,1.98l1.98,-1.98l-1.98,-1.98l1.98,-1.98l-1.98,-1.98l-1.98,1.98l-1.98,-1.98l-1.98,1.98l1.98,1.98l-1.98,1.98l1.98,1.98Z" style="opacity: 0.7; stroke-width: 1px; fill: rgb(34, 94, 168); fill-opacity: 1; stroke: rgb(34, 94, 168); stroke-opacity: 1;"/><path class="point" transform="translate(839.01,222.64)" d="M0,1.98l1.98,1.98l1.98,-1.98l-1.98,-1.98l1.98,-1.98l-1.98,-1.98l-1.98,1.98l-1.98,-1.98l-1.98,1.98l1.98,1.98l-1.98,1.98l1.98,1.98Z" style="opacity: 0.7; stroke-width: 1px; fill: rgb(34, 94, 168); fill-opacity: 1; stroke: rgb(34, 94, 168); stroke-opacity: 1;"/><path class="point" transform="translate(863.93,24.73)" d="M0,1.98l1.98,1.98l1.98,-1.98l-1.98,-1.98l1.98,-1.98l-1.98,-1.98l-1.98,1.98l-1.98,-1.98l-1.98,1.98l1.98,1.98l-1.98,1.98l1.98,1.98Z" style="opacity: 0.7; stroke-width: 1px; fill: rgb(34, 94, 168); fill-opacity: 1; stroke: rgb(34, 94, 168); stroke-opacity: 1;"/></g><g class="text"/></g></g></g><g class="overplot"/><path class="xlines-above crisp" d="M84,448.5H1000M84,40.5H1000" style="fill: none; stroke-width: 1px; stroke: rgb(0, 0, 0); stroke-opacity: 1;"/><path class="ylines-above crisp" d="M84.5,41V448M999.5,41V448" style="fill: none; stroke-width: 1px; stroke: rgb(0, 0, 0); stroke-opacity: 1;"/><g class="overlines-above"/><g class="xaxislayer-above"><g class="xtick"><text text-anchor="middle" x="0" y="468.2" transform="translate(177.67000000000002,0)" style="font-family: 'Utopia Std'; font-size: 16px; fill: rgb(42, 63, 95); fill-opacity: 1; white-space: pre;">.01%</text></g><g class="xtick"><text text-anchor="middle" x="0" y="468.2" transform="translate(255.06,0)" style="font-family: 'Utopia Std'; font-size: 16px; fill: rgb(42, 63, 95); fill-opacity: 1; white-space: pre;">.02%</text></g><g class="xtick"><text text-anchor="middle" x="0" y="468.2" transform="translate(357.36,0)" style="font-family: 'Utopia Std'; font-size: 16px; fill: rgb(42, 63, 95); fill-opacity: 1; white-space: pre;">.05%</text></g><g class="xtick"><text text-anchor="middle" x="0" y="468.2" transform="translate(434.75,0)" style="font-family: 'Utopia Std'; font-size: 16px; fill: rgb(42, 63, 95); fill-opacity: 1; white-space: pre;">.1%</text></g><g class="xtick"><text text-anchor="middle" x="0" y="468.2" transform="translate(512.14,0)" style="font-family: 'Utopia Std'; font-size: 16px; fill: rgb(42, 63, 95); fill-opacity: 1; white-space: pre;">.2%</text></g><g class="xtick"><text text-anchor="middle" x="0" y="468.2" transform="translate(614.45,0)" style="font-family: 'Utopia Std'; font-size: 16px; fill: rgb(42, 63, 95); fill-opacity: 1; white-space: pre;">.5%</text></g><g class="xtick"><text text-anchor="middle" x="0" y="468.2" transform="translate(691.84,0)" style="font-family: 'Utopia Std'; font-size: 16px; fill: rgb(42, 63, 95); fill-opacity: 1; white-space: pre;">1%</text></g><g class="xtick"><text text-anchor="middle" x="0" y="468.2" transform="translate(769.23,0)" style="font-family: 'Utopia Std'; font-size: 16px; fill: rgb(42, 63, 95); fill-opacity: 1; white-space: pre;">2%</text></g><g class="xtick"><text text-anchor="middle" x="0" y="468.2" transform="translate(871.53,0)" style="font-family: 'Utopia Std'; font-size: 16px; fill: rgb(42, 63, 95); fill-opacity: 1; white-space: pre;">5%</text></g><g class="xtick"><text text-anchor="middle" x="0" y="468.2" transform="translate(948.93,0)" style="font-family: 'Utopia Std'; font-size: 16px; fill: rgb(42, 63, 95); fill-opacity: 1; white-space: pre;">10%</text></g></g><g class="yaxislayer-above"><g class="ytick"><text text-anchor="end" x="80.8" y="5.6" transform="translate(0,411.67)" style="font-family: 'Utopia Std'; font-size: 16px; fill: rgb(42, 63, 95); fill-opacity: 1; white-space: pre;">0.35</text></g><g class="ytick"><text text-anchor="end" x="80.8" y="5.6" transform="translate(0,367.32)" style="font-family: 'Utopia Std'; font-size: 16px; fill: rgb(42, 63, 95); fill-opacity: 1; white-space: pre;">0.4</text></g><g class="ytick"><text text-anchor="end" x="80.8" y="5.6" transform="translate(0,322.98)" style="font-family: 'Utopia Std'; font-size: 16px; fill: rgb(42, 63, 95); fill-opacity: 1; white-space: pre;">0.45</text></g><g class="ytick"><text text-anchor="end" x="80.8" y="5.6" transform="translate(0,278.63)" style="font-family: 'Utopia Std'; font-size: 16px; fill: rgb(42, 63, 95); fill-opacity: 1; white-space: pre;">0.5</text></g><g class="ytick"><text text-anchor="end" x="80.8" y="5.6" transform="translate(0,234.29)" style="font-family: 'Utopia Std'; font-size: 16px; fill: rgb(42, 63, 95); fill-opacity: 1; white-space: pre;">0.55</text></g><g class="ytick"><text text-anchor="end" x="80.8" y="5.6" transform="translate(0,189.94)" style="font-family: 'Utopia Std'; font-size: 16px; fill: rgb(42, 63, 95); fill-opacity: 1; white-space: pre;">0.6</text></g><g class="ytick"><text text-anchor="end" x="80.8" y="5.6" transform="translate(0,145.6)" style="font-family: 'Utopia Std'; font-size: 16px; fill: rgb(42, 63, 95); fill-opacity: 1; white-space: pre;">0.65</text></g><g class="ytick"><text text-anchor="end" x="80.8" y="5.6" transform="translate(0,101.25)" style="font-family: 'Utopia Std'; font-size: 16px; fill: rgb(42, 63, 95); fill-opacity: 1; white-space: pre;">0.7</text></g><g class="ytick"><text text-anchor="end" x="80.8" y="5.6" transform="translate(0,56.9)" style="font-family: 'Utopia Std'; font-size: 16px; fill: rgb(42, 63, 95); fill-opacity: 1; white-space: pre;">0.75</text></g></g><g class="overaxes-above"/></g></g><g class="polarlayer"/><g class="ternarylayer"/><g class="geolayer"/><g class="funnelarealayer"/><g class="pielayer"/><g class="treemaplayer"/><g class="sunburstlayer"/><g class="glimages"/><defs id="topdefs-ed5142"><g class="clips"/><clipPath id="legended5142"><rect width="293" height="34" x="0" y="0"/></clipPath></defs><g class="layer-above"><g class="imagelayer"/><g class="shapelayer"/></g><g class="infolayer"><g class="legend" pointer-events="all" transform="translate(395.5, 0.29999999999996163)"><rect class="bg" shape-rendering="crispEdges" width="293" height="34" x="0" y="0" style="stroke: rgb(68, 68, 68); stroke-opacity: 1; fill: rgb(0, 0, 0); fill-opacity: 0; stroke-width: 0px;"/><g class="scrollbox" transform="translate(0, 0)" clip-path="url('#legended5142')"><g class="groups"><g class="traces" transform="translate(0, 16.9)" style="opacity: 1;"><text class="legendtext user-select-none" text-anchor="start" x="40" y="6.24" style="font-family: 'Utopia Std'; font-size: 16px; fill: rgb(42, 63, 95); fill-opacity: 1; white-space: pre;">All Fund Family    </text><g class="layers" style="opacity: 1;"><g class="legendfill"/><g class="legendlines"/><g class="legendsymbols"><g class="legendpoints"><path class="scatterpts" transform="translate(20,0)" d="M8,0A8,8 0 1,1 0,-8A8,8 0 0,1 8,0Z" style="opacity: 0.7; stroke-width: 1px; fill: rgb(0, 0, 0); fill-opacity: 0; stroke: rgb(0, 0, 0); stroke-opacity: 1;"/></g></g></g><rect class="legendtoggle" pointer-events="all" x="0" y="-11.9" width="164.8125" height="23.8" style="cursor: pointer; fill: rgb(0, 0, 0); fill-opacity: 0;"/></g><g class="traces" transform="translate(167.3125, 16.9)" style="opacity: 1;"><text class="legendtext user-select-none" text-anchor="start" x="40" y="6.24" style="font-family: 'Utopia Std'; font-size: 16px; fill: rgb(42, 63, 95); fill-opacity: 1; white-space: pre;">Vanguard    </text><g class="layers" style="opacity: 1;"><g class="legendfill"/><g class="legendlines"/><g class="legendsymbols"><g class="legendpoints"><path class="scatterpts" transform="translate(20,0)" d="M0,1.98l1.98,1.98l1.98,-1.98l-1.98,-1.98l1.98,-1.98l-1.98,-1.98l-1.98,1.98l-1.98,-1.98l-1.98,1.98l1.98,1.98l-1.98,1.98l1.98,1.98Z" style="opacity: 0.7; stroke-width: 1px; fill: rgb(34, 94, 168); fill-opacity: 1; stroke: rgb(34, 94, 168); stroke-opacity: 1;"/></g></g></g><rect class="legendtoggle" pointer-events="all" x="0" y="-11.9" width="123.1875" height="23.8" style="cursor: pointer; fill: rgb(0, 0, 0); fill-opacity: 0;"/></g></g></g><rect class="scrollbar" rx="20" ry="3" width="0" height="0" x="0" y="0" style="fill: rgb(128, 139, 164); fill-opacity: 1;"/></g><g class="g-gtitle"/><g class="g-xtitle" transform="translate(0,-5.284375000000011)"><text class="xtitle" x="542" y="500.4875" text-anchor="middle" style="font-family: 'Utopia Std'; font-size: 19px; fill: rgb(42, 63, 95); opacity: 1; font-weight: normal; white-space: pre;">Fund family's holding in target firm</text></g><g class="g-ytitle" transform="translate(17,0)"><text class="ytitle" transform="rotate(-90,-0.203125,244.5)" x="-0.203125" y="244.5" text-anchor="middle" style="font-family: 'Utopia Std'; font-size: 19px; fill: rgb(42, 63, 95); opacity: 1; font-weight: normal; white-space: pre;"><tspan class="line" dy="0em" x="-0.203125" y="244.5">Likelihood of fund family supporting activists,</tspan><tspan class="line" dy="1.3em" x="-0.203125" y="244.5">based on proxy text</tspan></text></g></g></svg>