<svg class="main-svg" xmlns="http://www.w3.org/2000/svg" xmlns:xlink="http://www.w3.org/1999/xlink" width="1000" height="500" viewBox="0 0 1000 500"><rect x="0" y="0" width="1000" height="500" style="fill: rgb(0, 0, 0); fill-opacity: 0;"/><defs id="defs-f4e8d7"><g class="clips"><clipPath id="clipf4e8d7xyplot" class="plotclip"><rect width="914" height="474"/></clipPath><clipPath class="axesclip" id="clipf4e8d7x"><rect x="85" y="0" width="914" height="500"/></clipPath><clipPath class="axesclip" id="clipf4e8d7y"><rect x="0" y="2" width="1000" height="474"/></clipPath><clipPath class="axesclip" id="clipf4e8d7xy"><rect x="85" y="2" width="914" height="474"/></clipPath></g><g class="gradients"/></defs><g class="bglayer"><rect class="bg" x="85" y="2" width="914" height="474" style="fill: rgb(0, 0, 0); fill-opacity: 0; stroke-width: 0;"/></g><g class="layer-below"><g class="imagelayer"/><g class="shapelayer"/></g><g class="cartesianlayer"><g class="subplot xy"><g class="layer-subplot"><g class="shapelayer"/><g class="imagelayer"/></g><g class="gridlayer"><g class="x"/><g class="y"/></g><g class="zerolinelayer"><path class="xzl zl crisp" transform="translate(121.50999999999999,0)" d="M0,2v474" style="stroke: rgb(255, 255, 255); stroke-opacity: 1; stroke-width: 2px;"/><path class="yzl zl crisp" transform="translate(0,447.93)" d="M85,0h914" style="stroke: rgb(255, 255, 255); stroke-opacity: 1; stroke-width: 2px;"/></g><path class="xlines-below"/><path class="ylines-below"/><g class="overlines-below"/><g class="xaxislayer-below"/><g class="yaxislayer-below"/><g class="overaxes-below"/><g class="plot" transform="translate(85, 2)" clip-path="url('#clipf4e8d7xyplot')"><g class="scatterlayer mlayer"><g class="trace scatter traceb34fd2" style="stroke-miterlimit: 2; opacity: 1;"><g class="fills"/><g class="errorbars"/><g class="lines"/><g class="points"><path class="point" transform="translate(50.08,445.93)" d="M0,1.98l1.98,1.98l1.98,-1.98l-1.98,-1.98l1.98,-1.98l-1.98,-1.98l-1.98,1.98l-1.98,-1.98l-1.98,1.98l1.98,1.98l-1.98,1.98l1.98,1.98Z" style="opacity: 1; stroke-width: 0px; fill: rgb(34, 94, 168); fill-opacity: 1;"/><path class="point" transform="translate(63.64,401.94)" d="M0,1.98l1.98,1.98l1.98,-1.98l-1.98,-1.98l1.98,-1.98l-1.98,-1.98l-1.98,1.98l-1.98,-1.98l-1.98,1.98l1.98,1.98l-1.98,1.98l1.98,1.98Z" style="opacity: 1; stroke-width: 0px; fill: rgb(34, 94, 168); fill-opacity: 1;"/><path class="point" transform="translate(77.2,423.93)" d="M0,1.98l1.98,1.98l1.98,-1.98l-1.98,-1.98l1.98,-1.98l-1.98,-1.98l-1.98,1.98l-1.98,-1.98l-1.98,1.98l1.98,1.98l-1.98,1.98l1.98,1.98Z" style="opacity: 1; stroke-width: 0px; fill: rgb(34, 94, 168); fill-opacity: 1;"/><path class="point" transform="translate(90.77,445.93)" d="M0,1.98l1.98,1.98l1.98,-1.98l-1.98,-1.98l1.98,-1.98l-1.98,-1.98l-1.98,1.98l-1.98,-1.98l-1.98,1.98l1.98,1.98l-1.98,1.98l1.98,1.98Z" style="opacity: 1; stroke-width: 0px; fill: rgb(34, 94, 168); fill-opacity: 1;"/><path class="point" transform="translate(104.33,423.93)" d="M0,1.98l1.98,1.98l1.98,-1.98l-1.98,-1.98l1.98,-1.98l-1.98,-1.98l-1.98,1.98l-1.98,-1.98l-1.98,1.98l1.98,1.98l-1.98,1.98l1.98,1.98Z" style="opacity: 1; stroke-width: 0px; fill: rgb(34, 94, 168); fill-opacity: 1;"/><path class="point" transform="translate(117.9,401.94)" d="M0,1.98l1.98,1.98l1.98,-1.98l-1.98,-1.98l1.98,-1.98l-1.98,-1.98l-1.98,1.98l-1.98,-1.98l-1.98,1.98l1.98,1.98l-1.98,1.98l1.98,1.98Z" style="opacity: 1; stroke-width: 0px; fill: rgb(34, 94, 168); fill-opacity: 1;"/><path class="point" transform="translate(131.46,423.93)" d="M0,1.98l1.98,1.98l1.98,-1.98l-1.98,-1.98l1.98,-1.98l-1.98,-1.98l-1.98,1.98l-1.98,-1.98l-1.98,1.98l1.98,1.98l-1.98,1.98l1.98,1.98Z" style="opacity: 1; stroke-width: 0px; fill: rgb(34, 94, 168); fill-opacity: 1;"/><path class="point" transform="translate(145.02,379.95)" d="M0,1.98l1.98,1.98l1.98,-1.98l-1.98,-1.98l1.98,-1.98l-1.98,-1.98l-1.98,1.98l-1.98,-1.98l-1.98,1.98l1.98,1.98l-1.98,1.98l1.98,1.98Z" style="opacity: 1; stroke-width: 0px; fill: rgb(34, 94, 168); fill-opacity: 1;"/><path class="point" transform="translate(158.59,423.93)" d="M0,1.98l1.98,1.98l1.98,-1.98l-1.98,-1.98l1.98,-1.98l-1.98,-1.98l-1.98,1.98l-1.98,-1.98l-1.98,1.98l1.98,1.98l-1.98,1.98l1.98,1.98Z" style="opacity: 1; stroke-width: 0px; fill: rgb(34, 94, 168); fill-opacity: 1;"/><path class="point" transform="translate(172.15,357.96)" d="M0,1.98l1.98,1.98l1.98,-1.98l-1.98,-1.98l1.98,-1.98l-1.98,-1.98l-1.98,1.98l-1.98,-1.98l-1.98,1.98l1.98,1.98l-1.98,1.98l1.98,1.98Z" style="opacity: 1; stroke-width: 0px; fill: rgb(34, 94, 168); fill-opacity: 1;"/><path class="point" transform="translate(185.72,357.96)" d="M0,1.98l1.98,1.98l1.98,-1.98l-1.98,-1.98l1.98,-1.98l-1.98,-1.98l-1.98,1.98l-1.98,-1.98l-1.98,1.98l1.98,1.98l-1.98,1.98l1.98,1.98Z" style="opacity: 1; stroke-width: 0px; fill: rgb(34, 94, 168); fill-opacity: 1;"/><path class="point" transform="translate(199.28,379.95)" d="M0,1.98l1.98,1.98l1.98,-1.98l-1.98,-1.98l1.98,-1.98l-1.98,-1.98l-1.98,1.98l-1.98,-1.98l-1.98,1.98l1.98,1.98l-1.98,1.98l1.98,1.98Z" style="opacity: 1; stroke-width: 0px; fill: rgb(34, 94, 168); fill-opacity: 1;"/><path class="point" transform="translate(212.84,313.97)" d="M0,1.98l1.98,1.98l1.98,-1.98l-1.98,-1.98l1.98,-1.98l-1.98,-1.98l-1.98,1.98l-1.98,-1.98l-1.98,1.98l1.98,1.98l-1.98,1.98l1.98,1.98Z" style="opacity: 1; stroke-width: 0px; fill: rgb(34, 94, 168); fill-opacity: 1;"/><path class="point" transform="translate(226.41,379.95)" d="M0,1.98l1.98,1.98l1.98,-1.98l-1.98,-1.98l1.98,-1.98l-1.98,-1.98l-1.98,1.98l-1.98,-1.98l-1.98,1.98l1.98,1.98l-1.98,1.98l1.98,1.98Z" style="opacity: 1; stroke-width: 0px; fill: rgb(34, 94, 168); fill-opacity: 1;"/><path class="point" transform="translate(239.97,401.94)" d="M0,1.98l1.98,1.98l1.98,-1.98l-1.98,-1.98l1.98,-1.98l-1.98,-1.98l-1.98,1.98l-1.98,-1.98l-1.98,1.98l1.98,1.98l-1.98,1.98l1.98,1.98Z" style="opacity: 1; stroke-width: 0px; fill: rgb(34, 94, 168); fill-opacity: 1;"/><path class="point" transform="translate(253.54,379.95)" d="M0,1.98l1.98,1.98l1.98,-1.98l-1.98,-1.98l1.98,-1.98l-1.98,-1.98l-1.98,1.98l-1.98,-1.98l-1.98,1.98l1.98,1.98l-1.98,1.98l1.98,1.98Z" style="opacity: 1; stroke-width: 0px; fill: rgb(34, 94, 168); fill-opacity: 1;"/><path class="point" transform="translate(267.1,335.96)" d="M0,1.98l1.98,1.98l1.98,-1.98l-1.98,-1.98l1.98,-1.98l-1.98,-1.98l-1.98,1.98l-1.98,-1.98l-1.98,1.98l1.98,1.98l-1.98,1.98l1.98,1.98Z" style="opacity: 1; stroke-width: 0px; fill: rgb(34, 94, 168); fill-opacity: 1;"/><path class="point" transform="translate(280.67,379.95)" d="M0,1.98l1.98,1.98l1.98,-1.98l-1.98,-1.98l1.98,-1.98l-1.98,-1.98l-1.98,1.98l-1.98,-1.98l-1.98,1.98l1.98,1.98l-1.98,1.98l1.98,1.98Z" style="opacity: 1; stroke-width: 0px; fill: rgb(34, 94, 168); fill-opacity: 1;"/><path class="point" transform="translate(294.23,291.98)" d="M0,1.98l1.98,1.98l1.98,-1.98l-1.98,-1.98l1.98,-1.98l-1.98,-1.98l-1.98,1.98l-1.98,-1.98l-1.98,1.98l1.98,1.98l-1.98,1.98l1.98,1.98Z" style="opacity: 1; stroke-width: 0px; fill: rgb(34, 94, 168); fill-opacity: 1;"/><path class="point" transform="translate(307.79,248)" d="M0,1.98l1.98,1.98l1.98,-1.98l-1.98,-1.98l1.98,-1.98l-1.98,-1.98l-1.98,1.98l-1.98,-1.98l-1.98,1.98l1.98,1.98l-1.98,1.98l1.98,1.98Z" style="opacity: 1; stroke-width: 0px; fill: rgb(34, 94, 168); fill-opacity: 1;"/><path class="point" transform="translate(321.36,269.99)" d="M0,1.98l1.98,1.98l1.98,-1.98l-1.98,-1.98l1.98,-1.98l-1.98,-1.98l-1.98,1.98l-1.98,-1.98l-1.98,1.98l1.98,1.98l-1.98,1.98l1.98,1.98Z" style="opacity: 1; stroke-width: 0px; fill: rgb(34, 94, 168); fill-opacity: 1;"/><path class="point" transform="translate(334.92,269.99)" d="M0,1.98l1.98,1.98l1.98,-1.98l-1.98,-1.98l1.98,-1.98l-1.98,-1.98l-1.98,1.98l-1.98,-1.98l-1.98,1.98l1.98,1.98l-1.98,1.98l1.98,1.98Z" style="opacity: 1; stroke-width: 0px; fill: rgb(34, 94, 168); fill-opacity: 1;"/><path class="point" transform="translate(348.49,160.03)" d="M0,1.98l1.98,1.98l1.98,-1.98l-1.98,-1.98l1.98,-1.98l-1.98,-1.98l-1.98,1.98l-1.98,-1.98l-1.98,1.98l1.98,1.98l-1.98,1.98l1.98,1.98Z" style="opacity: 1; stroke-width: 0px; fill: rgb(34, 94, 168); fill-opacity: 1;"/><path class="point" transform="translate(362.05,335.96)" d="M0,1.98l1.98,1.98l1.98,-1.98l-1.98,-1.98l1.98,-1.98l-1.98,-1.98l-1.98,1.98l-1.98,-1.98l-1.98,1.98l1.98,1.98l-1.98,1.98l1.98,1.98Z" style="opacity: 1; stroke-width: 0px; fill: rgb(34, 94, 168); fill-opacity: 1;"/><path class="point" transform="translate(375.61,423.93)" d="M0,1.98l1.98,1.98l1.98,-1.98l-1.98,-1.98l1.98,-1.98l-1.98,-1.98l-1.98,1.98l-1.98,-1.98l-1.98,1.98l1.98,1.98l-1.98,1.98l1.98,1.98Z" style="opacity: 1; stroke-width: 0px; fill: rgb(34, 94, 168); fill-opacity: 1;"/><path class="point" transform="translate(389.18,291.98)" d="M0,1.98l1.98,1.98l1.98,-1.98l-1.98,-1.98l1.98,-1.98l-1.98,-1.98l-1.98,1.98l-1.98,-1.98l-1.98,1.98l1.98,1.98l-1.98,1.98l1.98,1.98Z" style="opacity: 1; stroke-width: 0px; fill: rgb(34, 94, 168); fill-opacity: 1;"/><path class="point" transform="translate(402.74,204.01)" d="M0,1.98l1.98,1.98l1.98,-1.98l-1.98,-1.98l1.98,-1.98l-1.98,-1.98l-1.98,1.98l-1.98,-1.98l-1.98,1.98l1.98,1.98l-1.98,1.98l1.98,1.98Z" style="opacity: 1; stroke-width: 0px; fill: rgb(34, 94, 168); fill-opacity: 1;"/><path class="point" transform="translate(416.31,226)" d="M0,1.98l1.98,1.98l1.98,-1.98l-1.98,-1.98l1.98,-1.98l-1.98,-1.98l-1.98,1.98l-1.98,-1.98l-1.98,1.98l1.98,1.98l-1.98,1.98l1.98,1.98Z" style="opacity: 1; stroke-width: 0px; fill: rgb(34, 94, 168); fill-opacity: 1;"/><path class="point" transform="translate(429.87,357.96)" d="M0,1.98l1.98,1.98l1.98,-1.98l-1.98,-1.98l1.98,-1.98l-1.98,-1.98l-1.98,1.98l-1.98,-1.98l-1.98,1.98l1.98,1.98l-1.98,1.98l1.98,1.98Z" style="opacity: 1; stroke-width: 0px; fill: rgb(34, 94, 168); fill-opacity: 1;"/><path class="point" transform="translate(443.44,116.04)" d="M0,1.98l1.98,1.98l1.98,-1.98l-1.98,-1.98l1.98,-1.98l-1.98,-1.98l-1.98,1.98l-1.98,-1.98l-1.98,1.98l1.98,1.98l-1.98,1.98l1.98,1.98Z" style="opacity: 1; stroke-width: 0px; fill: rgb(34, 94, 168); fill-opacity: 1;"/><path class="point" transform="translate(457,357.96)" d="M0,1.98l1.98,1.98l1.98,-1.98l-1.98,-1.98l1.98,-1.98l-1.98,-1.98l-1.98,1.98l-1.98,-1.98l-1.98,1.98l1.98,1.98l-1.98,1.98l1.98,1.98Z" style="opacity: 1; stroke-width: 0px; fill: rgb(34, 94, 168); fill-opacity: 1;"/><path class="point" transform="translate(470.56,204.01)" d="M0,1.98l1.98,1.98l1.98,-1.98l-1.98,-1.98l1.98,-1.98l-1.98,-1.98l-1.98,1.98l-1.98,-1.98l-1.98,1.98l1.98,1.98l-1.98,1.98l1.98,1.98Z" style="opacity: 1; stroke-width: 0px; fill: rgb(34, 94, 168); fill-opacity: 1;"/><path class="point" transform="translate(484.13,204.01)" d="M0,1.98l1.98,1.98l1.98,-1.98l-1.98,-1.98l1.98,-1.98l-1.98,-1.98l-1.98,1.98l-1.98,-1.98l-1.98,1.98l1.98,1.98l-1.98,1.98l1.98,1.98Z" style="opacity: 1; stroke-width: 0px; fill: rgb(34, 94, 168); fill-opacity: 1;"/><path class="point" transform="translate(497.69,138.04)" d="M0,1.98l1.98,1.98l1.98,-1.98l-1.98,-1.98l1.98,-1.98l-1.98,-1.98l-1.98,1.98l-1.98,-1.98l-1.98,1.98l1.98,1.98l-1.98,1.98l1.98,1.98Z" style="opacity: 1; stroke-width: 0px; fill: rgb(34, 94, 168); fill-opacity: 1;"/><path class="point" transform="translate(511.26,248)" d="M0,1.98l1.98,1.98l1.98,-1.98l-1.98,-1.98l1.98,-1.98l-1.98,-1.98l-1.98,1.98l-1.98,-1.98l-1.98,1.98l1.98,1.98l-1.98,1.98l1.98,1.98Z" style="opacity: 1; stroke-width: 0px; fill: rgb(34, 94, 168); fill-opacity: 1;"/><path class="point" transform="translate(524.82,204.01)" d="M0,1.98l1.98,1.98l1.98,-1.98l-1.98,-1.98l1.98,-1.98l-1.98,-1.98l-1.98,1.98l-1.98,-1.98l-1.98,1.98l1.98,1.98l-1.98,1.98l1.98,1.98Z" style="opacity: 1; stroke-width: 0px; fill: rgb(34, 94, 168); fill-opacity: 1;"/><path class="point" transform="translate(538.39,248)" d="M0,1.98l1.98,1.98l1.98,-1.98l-1.98,-1.98l1.98,-1.98l-1.98,-1.98l-1.98,1.98l-1.98,-1.98l-1.98,1.98l1.98,1.98l-1.98,1.98l1.98,1.98Z" style="opacity: 1; stroke-width: 0px; fill: rgb(34, 94, 168); fill-opacity: 1;"/><path class="point" transform="translate(551.95,291.98)" d="M0,1.98l1.98,1.98l1.98,-1.98l-1.98,-1.98l1.98,-1.98l-1.98,-1.98l-1.98,1.98l-1.98,-1.98l-1.98,1.98l1.98,1.98l-1.98,1.98l1.98,1.98Z" style="opacity: 1; stroke-width: 0px; fill: rgb(34, 94, 168); fill-opacity: 1;"/><path class="point" transform="translate(565.51,248)" d="M0,1.98l1.98,1.98l1.98,-1.98l-1.98,-1.98l1.98,-1.98l-1.98,-1.98l-1.98,1.98l-1.98,-1.98l-1.98,1.98l1.98,1.98l-1.98,1.98l1.98,1.98Z" style="opacity: 1; stroke-width: 0px; fill: rgb(34, 94, 168); fill-opacity: 1;"/><path class="point" transform="translate(579.08,204.01)" d="M0,1.98l1.98,1.98l1.98,-1.98l-1.98,-1.98l1.98,-1.98l-1.98,-1.98l-1.98,1.98l-1.98,-1.98l-1.98,1.98l1.98,1.98l-1.98,1.98l1.98,1.98Z" style="opacity: 1; stroke-width: 0px; fill: rgb(34, 94, 168); fill-opacity: 1;"/><path class="point" transform="translate(592.64,248)" d="M0,1.98l1.98,1.98l1.98,-1.98l-1.98,-1.98l1.98,-1.98l-1.98,-1.98l-1.98,1.98l-1.98,-1.98l-1.98,1.98l1.98,1.98l-1.98,1.98l1.98,1.98Z" style="opacity: 1; stroke-width: 0px; fill: rgb(34, 94, 168); fill-opacity: 1;"/><path class="point" transform="translate(606.21,291.98)" d="M0,1.98l1.98,1.98l1.98,-1.98l-1.98,-1.98l1.98,-1.98l-1.98,-1.98l-1.98,1.98l-1.98,-1.98l-1.98,1.98l1.98,1.98l-1.98,1.98l1.98,1.98Z" style="opacity: 1; stroke-width: 0px; fill: rgb(34, 94, 168); fill-opacity: 1;"/><path class="point" transform="translate(619.77,269.99)" d="M0,1.98l1.98,1.98l1.98,-1.98l-1.98,-1.98l1.98,-1.98l-1.98,-1.98l-1.98,1.98l-1.98,-1.98l-1.98,1.98l1.98,1.98l-1.98,1.98l1.98,1.98Z" style="opacity: 1; stroke-width: 0px; fill: rgb(34, 94, 168); fill-opacity: 1;"/><path class="point" transform="translate(633.33,291.98)" d="M0,1.98l1.98,1.98l1.98,-1.98l-1.98,-1.98l1.98,-1.98l-1.98,-1.98l-1.98,1.98l-1.98,-1.98l-1.98,1.98l1.98,1.98l-1.98,1.98l1.98,1.98Z" style="opacity: 1; stroke-width: 0px; fill: rgb(34, 94, 168); fill-opacity: 1;"/><path class="point" transform="translate(646.9,226)" d="M0,1.98l1.98,1.98l1.98,-1.98l-1.98,-1.98l1.98,-1.98l-1.98,-1.98l-1.98,1.98l-1.98,-1.98l-1.98,1.98l1.98,1.98l-1.98,1.98l1.98,1.98Z" style="opacity: 1; stroke-width: 0px; fill: rgb(34, 94, 168); fill-opacity: 1;"/><path class="point" transform="translate(660.46,204.01)" d="M0,1.98l1.98,1.98l1.98,-1.98l-1.98,-1.98l1.98,-1.98l-1.98,-1.98l-1.98,1.98l-1.98,-1.98l-1.98,1.98l1.98,1.98l-1.98,1.98l1.98,1.98Z" style="opacity: 1; stroke-width: 0px; fill: rgb(34, 94, 168); fill-opacity: 1;"/><path class="point" transform="translate(674.03,291.98)" d="M0,1.98l1.98,1.98l1.98,-1.98l-1.98,-1.98l1.98,-1.98l-1.98,-1.98l-1.98,1.98l-1.98,-1.98l-1.98,1.98l1.98,1.98l-1.98,1.98l1.98,1.98Z" style="opacity: 1; stroke-width: 0px; fill: rgb(34, 94, 168); fill-opacity: 1;"/><path class="point" transform="translate(687.59,226)" d="M0,1.98l1.98,1.98l1.98,-1.98l-1.98,-1.98l1.98,-1.98l-1.98,-1.98l-1.98,1.98l-1.98,-1.98l-1.98,1.98l1.98,1.98l-1.98,1.98l1.98,1.98Z" style="opacity: 1; stroke-width: 0px; fill: rgb(34, 94, 168); fill-opacity: 1;"/><path class="point" transform="translate(701.16,160.03)" d="M0,1.98l1.98,1.98l1.98,-1.98l-1.98,-1.98l1.98,-1.98l-1.98,-1.98l-1.98,1.98l-1.98,-1.98l-1.98,1.98l1.98,1.98l-1.98,1.98l1.98,1.98Z" style="opacity: 1; stroke-width: 0px; fill: rgb(34, 94, 168); fill-opacity: 1;"/><path class="point" transform="translate(714.72,357.96)" d="M0,1.98l1.98,1.98l1.98,-1.98l-1.98,-1.98l1.98,-1.98l-1.98,-1.98l-1.98,1.98l-1.98,-1.98l-1.98,1.98l1.98,1.98l-1.98,1.98l1.98,1.98Z" style="opacity: 1; stroke-width: 0px; fill: rgb(34, 94, 168); fill-opacity: 1;"/><path class="point" transform="translate(728.28,291.98)" d="M0,1.98l1.98,1.98l1.98,-1.98l-1.98,-1.98l1.98,-1.98l-1.98,-1.98l-1.98,1.98l-1.98,-1.98l-1.98,1.98l1.98,1.98l-1.98,1.98l1.98,1.98Z" style="opacity: 1; stroke-width: 0px; fill: rgb(34, 94, 168); fill-opacity: 1;"/><path class="point" transform="translate(741.85,160.03)" d="M0,1.98l1.98,1.98l1.98,-1.98l-1.98,-1.98l1.98,-1.98l-1.98,-1.98l-1.98,1.98l-1.98,-1.98l-1.98,1.98l1.98,1.98l-1.98,1.98l1.98,1.98Z" style="opacity: 1; stroke-width: 0px; fill: rgb(34, 94, 168); fill-opacity: 1;"/><path class="point" transform="translate(755.41,445.93)" d="M0,1.98l1.98,1.98l1.98,-1.98l-1.98,-1.98l1.98,-1.98l-1.98,-1.98l-1.98,1.98l-1.98,-1.98l-1.98,1.98l1.98,1.98l-1.98,1.98l1.98,1.98Z" style="opacity: 1; stroke-width: 0px; fill: rgb(34, 94, 168); fill-opacity: 1;"/><path class="point" transform="translate(768.98,28.07)" d="M0,1.98l1.98,1.98l1.98,-1.98l-1.98,-1.98l1.98,-1.98l-1.98,-1.98l-1.98,1.98l-1.98,-1.98l-1.98,1.98l1.98,1.98l-1.98,1.98l1.98,1.98Z" style="opacity: 1; stroke-width: 0px; fill: rgb(34, 94, 168); fill-opacity: 1;"/><path class="point" transform="translate(782.54,248)" d="M0,1.98l1.98,1.98l1.98,-1.98l-1.98,-1.98l1.98,-1.98l-1.98,-1.98l-1.98,1.98l-1.98,-1.98l-1.98,1.98l1.98,1.98l-1.98,1.98l1.98,1.98Z" style="opacity: 1; stroke-width: 0px; fill: rgb(34, 94, 168); fill-opacity: 1;"/><path class="point" transform="translate(796.1,138.04)" d="M0,1.98l1.98,1.98l1.98,-1.98l-1.98,-1.98l1.98,-1.98l-1.98,-1.98l-1.98,1.98l-1.98,-1.98l-1.98,1.98l1.98,1.98l-1.98,1.98l1.98,1.98Z" style="opacity: 1; stroke-width: 0px; fill: rgb(34, 94, 168); fill-opacity: 1;"/><path class="point" transform="translate(809.67,313.97)" d="M0,1.98l1.98,1.98l1.98,-1.98l-1.98,-1.98l1.98,-1.98l-1.98,-1.98l-1.98,1.98l-1.98,-1.98l-1.98,1.98l1.98,1.98l-1.98,1.98l1.98,1.98Z" style="opacity: 1; stroke-width: 0px; fill: rgb(34, 94, 168); fill-opacity: 1;"/><path class="point" transform="translate(823.23,226)" d="M0,1.98l1.98,1.98l1.98,-1.98l-1.98,-1.98l1.98,-1.98l-1.98,-1.98l-1.98,1.98l-1.98,-1.98l-1.98,1.98l1.98,1.98l-1.98,1.98l1.98,1.98Z" style="opacity: 1; stroke-width: 0px; fill: rgb(34, 94, 168); fill-opacity: 1;"/><path class="point" transform="translate(836.8,160.03)" d="M0,1.98l1.98,1.98l1.98,-1.98l-1.98,-1.98l1.98,-1.98l-1.98,-1.98l-1.98,1.98l-1.98,-1.98l-1.98,1.98l1.98,1.98l-1.98,1.98l1.98,1.98Z" style="opacity: 1; stroke-width: 0px; fill: rgb(34, 94, 168); fill-opacity: 1;"/><path class="point" transform="translate(850.36,182.02)" d="M0,1.98l1.98,1.98l1.98,-1.98l-1.98,-1.98l1.98,-1.98l-1.98,-1.98l-1.98,1.98l-1.98,-1.98l-1.98,1.98l1.98,1.98l-1.98,1.98l1.98,1.98Z" style="opacity: 1; stroke-width: 0px; fill: rgb(34, 94, 168); fill-opacity: 1;"/><path class="point" transform="translate(863.93,182.02)" d="M0,1.98l1.98,1.98l1.98,-1.98l-1.98,-1.98l1.98,-1.98l-1.98,-1.98l-1.98,1.98l-1.98,-1.98l-1.98,1.98l1.98,1.98l-1.98,1.98l1.98,1.98Z" style="opacity: 1; stroke-width: 0px; fill: rgb(34, 94, 168); fill-opacity: 1;"/></g><g class="text"/></g></g></g><g class="overplot"/><path class="xlines-above crisp" d="M84,476.5H1000M84,1.5H1000" style="fill: none; stroke-width: 1px; stroke: rgb(0, 0, 0); stroke-opacity: 1;"/><path class="ylines-above crisp" d="M84.5,2V476M999.5,2V476" style="fill: none; stroke-width: 1px; stroke: rgb(0, 0, 0); stroke-opacity: 1;"/><g class="overlines-above"/><g class="xaxislayer-above"><g class="xtick"><text text-anchor="middle" x="0" y="496.2" transform="translate(148.64,0)" style="font-family: 'Utopia Std'; font-size: 16px; fill: rgb(42, 63, 95); fill-opacity: 1; white-space: pre;">2004</text></g><g class="xtick"><text text-anchor="middle" x="0" y="496.2" transform="translate(311.40999999999997,0)" style="font-family: 'Utopia Std'; font-size: 16px; fill: rgb(42, 63, 95); fill-opacity: 1; white-space: pre;">2007</text></g><g class="xtick"><text text-anchor="middle" x="0" y="496.2" transform="translate(474.18,0)" style="font-family: 'Utopia Std'; font-size: 16px; fill: rgb(42, 63, 95); fill-opacity: 1; white-space: pre;">2010</text></g><g class="xtick"><text text-anchor="middle" x="0" y="496.2" transform="translate(636.95,0)" style="font-family: 'Utopia Std'; font-size: 16px; fill: rgb(42, 63, 95); fill-opacity: 1; white-space: pre;">2013</text></g><g class="xtick"><text text-anchor="middle" x="0" y="496.2" transform="translate(799.72,0)" style="font-family: 'Utopia Std'; font-size: 16px; fill: rgb(42, 63, 95); fill-opacity: 1; white-space: pre;">2016</text></g><g class="xtick"><text text-anchor="middle" x="0" y="496.2" transform="translate(962.49,0)" style="font-family: 'Utopia Std'; font-size: 16px; fill: rgb(42, 63, 95); fill-opacity: 1; white-space: pre;">2019</text></g></g><g class="yaxislayer-above"><g class="ytick"><text text-anchor="end" x="80.8" y="5.6" transform="translate(0,447.93)" style="font-family: 'Utopia Std'; font-size: 16px; fill: rgb(42, 63, 95); fill-opacity: 1; white-space: pre;">0</text></g><g class="ytick"><text text-anchor="end" x="80.8" y="5.6" transform="translate(0,337.96)" style="font-family: 'Utopia Std'; font-size: 16px; fill: rgb(42, 63, 95); fill-opacity: 1; white-space: pre;">0.05</text></g><g class="ytick"><text text-anchor="end" x="80.8" y="5.6" transform="translate(0,228)" style="font-family: 'Utopia Std'; font-size: 16px; fill: rgb(42, 63, 95); fill-opacity: 1; white-space: pre;">0.1</text></g><g class="ytick"><text text-anchor="end" x="80.8" y="5.6" transform="translate(0,118.04)" style="font-family: 'Utopia Std'; font-size: 16px; fill: rgb(42, 63, 95); fill-opacity: 1; white-space: pre;">0.15</text></g><g class="ytick"><text text-anchor="end" x="80.8" y="5.6" transform="translate(0,8.08)" style="font-family: 'Utopia Std'; font-size: 16px; fill: rgb(42, 63, 95); fill-opacity: 1; white-space: pre;">0.2</text></g></g><g class="overaxes-above"/></g></g><g class="polarlayer"/><g class="ternarylayer"/><g class="geolayer"/><g class="funnelarealayer"/><g class="pielayer"/><g class="treemaplayer"/><g class="sunburstlayer"/><g class="glimages"/><defs id="topdefs-f4e8d7"><g class="clips"/></defs><g class="layer-above"><g class="imagelayer"/><g class="shapelayer"/></g><g class="infolayer"><g class="g-gtitle"/><g class="g-xtitle"/><g class="g-ytitle" transform="translate(17,0)"><text class="ytitle" transform="rotate(-90,-0.203125,239)" x="-0.203125" y="239" text-anchor="middle" style="font-family: 'Utopia Std'; font-size: 19px; fill: rgb(42, 63, 95); opacity: 1; font-weight: normal; white-space: pre;"><tspan class="line" dy="0em" x="-0.203125" y="239">Aggregate MF support based on</tspan><tspan class="line" dy="1.3em" x="-0.203125" y="239">proxy text (quarterly av.)</tspan></text></g></g></svg>