<svg class="main-svg" xmlns="http://www.w3.org/2000/svg" xmlns:xlink="http://www.w3.org/1999/xlink" width="1000" height="500" viewBox="0 0 1000 500"><rect x="0" y="0" width="1000" height="500" style="fill: rgb(0, 0, 0); fill-opacity: 0;"/><defs id="defs-381871"><g class="clips"><clipPath id="clip381871xyplot" class="plotclip"><rect width="959" height="481"/></clipPath><clipPath class="axesclip" id="clip381871x"><rect x="40" y="0" width="959" height="500"/></clipPath><clipPath class="axesclip" id="clip381871y"><rect x="0" y="1" width="1000" height="481"/></clipPath><clipPath class="axesclip" id="clip381871xy"><rect x="40" y="1" width="959" height="481"/></clipPath></g><g class="gradients"/></defs><g class="bglayer"><rect class="bg" x="40" y="1" width="959" height="481" style="fill: rgb(0, 0, 0); fill-opacity: 0; stroke-width: 0;"/></g><g class="layer-below"><g class="imagelayer"/><g class="shapelayer"/></g><g class="cartesianlayer"><g class="subplot xy"><g class="layer-subplot"><g class="shapelayer"/><g class="imagelayer"/></g><g class="gridlayer"><g class="x"/><g class="y"/></g><g class="zerolinelayer"><path class="yzl zl crisp" transform="translate(0,256.14)" d="M40,0h959" style="stroke: rgb(255, 255, 255); stroke-opacity: 1; stroke-width: 2px;"/></g><path class="xlines-below"/><path class="ylines-below"/><g class="overlines-below"/><g class="xaxislayer-below"/><g class="yaxislayer-below"/><g class="overaxes-below"/><g class="plot" transform="translate(40, 1)" clip-path="url('#clip381871xyplot')"><g class="scatterlayer mlayer"><g class="trace scatter trace40c329" style="stroke-miterlimit: 2; opacity: 1;"><g class="fills"/><g class="errorbars"/><g class="lines"><path class="js-line" d="M340,146.42L346.67,149.23L353.33,161.47L360,152.07L366.67,129.84L373.33,137.33L380,140.54L386.67,139.98L393.33,135.65L400,146.58L406.67,144.83L413.33,159.99L420,145.51L426.67,161.13L433.33,157.61L440,144.76L446.67,143.6L453.33,153.36L460,141.31L473.33,142.92L480,148.1L486.67,140.02L493.33,133.71L500,139.38L506.67,120.79L513.33,144.99L520,143.41L533.33,145.55L540,135.75L546.67,135.56L553.33,156.26L560,142.47L566.67,145L586.67,144.89L593.33,148.44L600,139.4L606.67,145.74L613.33,148.75L620,149.39L626.67,145.01L633.33,157.29L640,144.09L646.67,147.89L653.33,144.29L660,146.14L666.67,146.58L673.33,182.97L680,159.68L686.67,160.26L693.33,161.35L700,166.47L706.67,148.26L713.33,146.35L726.67,149.06L733.33,146.78L746.67,142.75L753.33,141.75L773.33,144.23L780,146.54L786.67,147.02L793.33,145.99L813.33,145.07L820,147.1L826.67,147.35L833.33,146.7L846.67,148.65L853.33,158.33L860,158.26L866.67,155.59L880,153.11L886.67,152.38L900,150.67L906.67,150.64L913.33,148.02L920,150.84L926.67,167.75" style="vector-effect: non-scaling-stroke; fill: none; stroke: rgb(0, 0, 0); stroke-opacity: 1; stroke-width: 0px; opacity: 1;"/><path class="js-line" d="M326.06,140.85L332.45,143.56L338.85,155.33L345.24,146.29L351.63,124.91L358.03,132.11L364.42,135.2L370.81,134.66L377.21,130.5L383.6,141.01L389.99,139.33L396.39,153.91L402.78,139.98L409.17,155.01L415.57,151.62L421.96,139.26L428.35,138.14L434.75,147.54L441.14,135.95L453.93,137.49L460.32,142.48L466.71,134.7L473.11,128.63L479.5,134.09L485.89,116.2L492.29,139.48L498.68,137.96L511.47,140.02L517.86,130.59L524.25,130.41L530.65,150.32L537.04,137.06L543.43,139.49L562.61,139.38L569.01,142.8L575.4,134.1L581.79,140.2L588.19,143.1L594.58,143.71L600.97,139.5L607.37,151.31L613.76,138.62L620.15,142.27L626.55,138.81L632.94,140.58L639.33,141.01L645.73,176.02L652.12,153.61L658.51,154.17L664.91,155.22L671.3,160.15L677.69,142.62L684.09,140.79L696.87,143.39L703.27,141.2L716.05,137.33L722.45,136.36L741.63,138.75L748.02,140.97L754.41,141.43L760.81,140.45L779.99,139.56L786.38,141.51L792.77,141.76L799.17,141.13L811.95,143L818.35,152.31L824.74,152.25L831.13,149.67L843.92,147.29L850.31,146.59L863.1,144.94L869.49,144.91L875.89,142.4L882.28,145.11L888.67,161.38" style="vector-effect: non-scaling-stroke; fill: none; stroke: rgb(0, 114, 178); stroke-opacity: 1; stroke-width: 2px; opacity: 1;"/></g><g class="points"/><g class="text"/></g><g class="trace scatter tracef172be" style="stroke-miterlimit: 2; opacity: 1;"><g class="fills"/><g class="errorbars"/><g class="lines"><path class="js-line" d="M0,153.81L6.39,150.48L12.79,151.01L31.97,152.35L38.36,151.08L44.75,153.57L51.15,153.79L57.54,152.15L63.93,152.48L70.33,152.07L76.72,152.86L83.11,151.87L89.51,152.24L102.29,150.65L108.69,151.96L115.08,149.71L121.47,149.8L134.26,151.85L140.65,152.55L159.83,150.45L166.23,151.68L172.62,150.41L179.01,151.57L185.41,148.07L191.8,150.36L198.19,149.58L204.59,151.36L210.98,150.31L217.37,150.34L230.16,148.99L236.55,150.2L255.73,149.86L262.13,149L268.52,152.02L274.91,152.12L281.31,150.18L287.7,149.95L300.49,147.91L306.88,148.52L313.27,147.23L319.67,148.27L326.06,146.14L332.45,146.54L338.85,147.52L345.24,145.91L351.63,147.4L358.03,146.07L364.42,145.48L370.81,147.33L377.21,145.22L383.6,147.44L389.99,144.56L396.39,143.31L402.78,144.86L409.17,143.78L415.57,140.49L421.96,140.28L428.35,139.21L434.75,140.66L447.53,142.86L453.93,142.04L460.32,138.33L466.71,141.87L473.11,136.28L479.5,137.16L492.29,136.4L498.68,134.07L511.47,134.35L517.86,135.47L524.25,131.85L530.65,131.67L543.43,130.15L549.83,128.28L556.22,127.88L562.61,128.96L575.4,130.47L581.79,127.41L588.19,127.39L594.58,125.55L600.97,128.59L607.37,128.22L626.55,131.12L632.94,129.49L645.73,128.46L652.12,128.77L664.91,130.17L671.3,129.07L677.69,130.54L684.09,128.8L690.48,128.23L696.87,126.87L703.27,125.6L709.66,126.44L716.05,125.7L722.45,126.17L728.84,126.29L735.23,125.53L741.63,126.05L748.02,125.79L767.2,127.26L773.59,125.48L786.38,126.46L792.77,125.2L799.17,124.88L805.56,125.52L811.95,124.66L818.35,125.69L824.74,125.92L831.13,124.49L843.92,124.49L850.31,123.29L863.1,123.57L869.49,125.44L888.67,124.15" style="vector-effect: non-scaling-stroke; fill: none; stroke: rgb(230, 159, 0); stroke-opacity: 1; stroke-width: 2px; opacity: 1;"/></g><g class="points"/><g class="text"/></g><g class="trace scatter tracef344e6" style="stroke-miterlimit: 2; opacity: 1;"><g class="fills"/><g class="errorbars"/><g class="lines"><path class="js-line" d="M0,340.99L12.79,334.94L19.18,344.04L25.57,337.53L31.97,333.94L38.36,346.24L44.75,342.8L51.15,335.68L57.54,333.97L63.93,336.64L70.33,345.6L76.72,342.7L83.11,335.33L89.51,333.02L95.9,338.82L108.69,345.39L115.08,343.99L121.47,340.3L127.87,344.11L134.26,338.12L140.65,336.96L153.44,343.83L159.83,340.09L166.23,342.26L172.62,340.72L179.01,339.13L185.41,338.73L191.8,340.6L198.19,340.68L204.59,338.97L210.98,334.02L217.37,340.24L223.77,333.04L236.55,333.69L242.95,335.51L249.34,334.25L255.73,331.64L262.13,336.13L268.52,337.5L274.91,333.61L281.31,333.8L287.7,331.82L294.09,327.93L306.88,328.97L313.27,333.02L319.67,330.94L326.06,325.71L332.45,328.9L338.85,326.47L351.63,329.6L358.03,330.88L364.42,332.48L370.81,329.68L377.21,336.31L383.6,328.82L389.99,323.8L396.39,321.17L402.78,322.17L409.17,326.23L415.57,326.48L421.96,323.34L428.35,322.93L434.75,323.49L441.14,324.49L447.53,322.86L453.93,323.98L460.32,328.96L466.71,324.63L473.11,324.3L479.5,322.58L485.89,320L492.29,323.99L498.68,322.47L505.07,325.13L511.47,325.84L517.86,320.77L524.25,325.65L530.65,326.17L537.04,329.74L543.43,324.95L549.83,323.57L556.22,327.62L562.61,328.72L581.79,328.06L588.19,325.65L594.58,326.92L600.97,329.7L607.37,330.04L613.76,328.29L620.15,327.53L626.55,328.51L632.94,330.87L639.33,332.1L645.73,332.73L652.12,329.16L664.91,322.65L671.3,323.51L677.69,324.23L684.09,323.36L690.48,327.02L696.87,322.18L703.27,325.85L709.66,324.87L716.05,324.82L722.45,323.25L728.84,321.68L735.23,326.46L741.63,322.86L748.02,324.68L754.41,321.59L760.81,323.1L767.2,319.52L773.59,318.17L786.38,320.94L792.77,323.73L799.17,320.65L805.56,322.19L811.95,323.86L818.35,324.37L831.13,319.45L837.53,320.75L843.92,322.23L850.31,321.96L856.71,322.53L863.1,322.11L875.89,326.79L882.28,326.39L888.67,326.23" style="vector-effect: non-scaling-stroke; fill: none; stroke: rgb(240, 228, 66); stroke-opacity: 1; stroke-width: 2px; opacity: 1;"/></g><g class="points"/><g class="text"/></g><g class="trace scatter traceb62ce6" style="stroke-miterlimit: 2; opacity: 1;"><g class="fills"/><g class="errorbars"/><g class="lines"><path class="js-line" d="M0,204.01L6.39,199.24L12.79,199.08L19.18,206.23L25.57,205.25L31.97,204.44L38.36,205.09L44.75,202.37L51.15,195.9L57.54,202.54L63.93,201.09L70.33,196.02L76.72,195.9L83.11,204.71L89.51,199.37L95.9,196.7L102.29,198.18L108.69,195.07L115.08,197.6L121.47,194.18L127.87,195.43L134.26,193.59L140.65,189.02L153.44,190.37L159.83,187.63L166.23,188.81L172.62,188.12L179.01,185.22L185.41,185.79L191.8,188.15L198.19,184.7L204.59,184.53L210.98,185.86L217.37,184.55L223.77,185.01L230.16,185.08L236.55,183.48L242.95,184.27L249.34,189.45L255.73,182.75L262.13,196.97L268.52,183.07L274.91,188.07L281.31,185L287.7,187L294.09,187.26L300.49,184.3L306.88,186.51L313.27,186.13L326.06,190.81L332.45,196.03L338.85,190.74L345.24,188.92L351.63,191.66L358.03,191.86L364.42,189.62L370.81,189.09L377.21,189.55L383.6,190.94L389.99,190.03L396.39,197.18L402.78,189.02L409.17,188.92L415.57,191.63L421.96,192.69L428.35,188.23L434.75,190.3L441.14,185.28L447.53,189.63L460.32,188.09L466.71,184.39L473.11,187.41L479.5,185.02L485.89,186.49L492.29,185.22L498.68,188.39L505.07,183.5L511.47,182.41L517.86,184.59L530.65,185.35L537.04,182.91L543.43,184.74L549.83,183.04L556.22,183.33L562.61,186.28L569.01,184.29L575.4,184.43L581.79,185.11L588.19,184.31L594.58,184.9L600.97,181.7L607.37,183.17L613.76,183.41L626.55,186.13L632.94,182.99L639.33,183.65L645.73,185.21L652.12,183.61L658.51,189.36L664.91,183.35L671.3,183.03L677.69,184.22L684.09,183.6L690.48,185.05L696.87,183.87L703.27,184.15L709.66,183.32L722.45,183.55L728.84,184.05L735.23,182.81L741.63,182.61L748.02,181.12L754.41,182.19L760.81,182.31L767.2,181.38L773.59,181.29L779.99,183.92L786.38,184.95L792.77,183.66L805.56,182.28L811.95,183.46L837.53,180.2L843.92,180.44L850.31,177.61L856.71,176.58L863.1,177.56L869.49,176.47L875.89,177.3L882.28,176.6L888.67,176.49" style="vector-effect: non-scaling-stroke; fill: none; stroke: rgb(0, 158, 115); stroke-opacity: 1; stroke-width: 2px; opacity: 1;"/></g><g class="points"/><g class="text"/></g><g class="trace scatter tracef4727f" style="stroke-miterlimit: 2; opacity: 1;"><g class="fills"/><g class="errorbars"/><g class="lines"><path class="js-line" d="M0,454.48L6.39,454.05L12.79,454.65L25.57,455.84L31.97,453.15L38.36,453.25L44.75,455.13L57.54,455.25L63.93,451.11L70.33,456.95L76.72,451.82L83.11,454.28L89.51,451.42L95.9,452.22L102.29,450.4L108.69,453.15L115.08,451.66L121.47,450.41L127.87,451.57L134.26,454.25L140.65,452.75L147.05,451.72L153.44,452.4L159.83,450.29L166.23,451.63L172.62,451.95L179.01,454.29L185.41,452.36L191.8,452.85L204.59,453.72L210.98,453.5L217.37,452.28L223.77,452.45L230.16,451.66L236.55,452.19L255.73,452.29L262.13,452.88L281.31,451.01L287.7,452.65L294.09,451.58L300.49,434.89L306.88,447.11L313.27,442.6L319.67,436.26L326.06,438.43L332.45,438.08L338.85,436.46L345.24,431.84L351.63,435.15L358.03,432.55L364.42,432.92L370.81,431.64L377.21,432.42L383.6,432.64L389.99,431.65L396.39,423.64L402.78,435.44L409.17,432.55L415.57,430.86L428.35,431.07L434.75,428.44L441.14,430.29L447.53,428.16L466.71,430.42L473.11,422.75L479.5,428.2L485.89,428.73L492.29,430.66L498.68,431.72L505.07,431.67L511.47,429.8L517.86,426.14L524.25,429.53L530.65,427.33L537.04,427.31L562.61,425.56L569.01,425.82L575.4,426.43L581.79,424.87L594.58,425.4L600.97,426.73L613.76,425.5L620.15,426.42L632.94,426.22L639.33,426.53L652.12,425.31L658.51,425.77L664.91,425.95L671.3,424.8L677.69,424.27L684.09,427.55L690.48,424.62L696.87,424.33L735.23,426.03L741.63,425.81L748.02,426.93L754.41,426.28L773.59,427.14L779.99,424.86L799.17,419.96L805.56,419.75L824.74,422.41L831.13,421.85L843.92,422.97L850.31,421.92L869.49,422.58L875.89,421.18L882.28,421.54L888.67,423.77" style="vector-effect: non-scaling-stroke; fill: none; stroke: rgb(86, 180, 233); stroke-opacity: 1; stroke-width: 2px; opacity: 1;"/></g><g class="points"/><g class="text"/></g><g class="trace scatter trace8fab9a" style="stroke-miterlimit: 2; opacity: 1;"><g class="fills"/><g class="errorbars"/><g class="lines"><path class="js-line" d="M0,145.71L6.39,147.18L12.79,155.76L19.18,147.69L25.57,144.03L31.97,152.92L38.36,143.68L44.75,141.35L51.15,159.2L57.54,138.02L63.93,136.8L70.33,143.04L76.72,142.68L83.11,149.46L89.51,140.91L95.9,142.87L102.29,149.39L115.08,139.56L121.47,140.2L127.87,145.18L134.26,146.14L140.65,145.32L147.05,141.44L153.44,140.73L159.83,139.15L166.23,142.17L172.62,141.32L179.01,140.54L185.41,143.36L191.8,131.78L198.19,139.78L204.59,139.17L210.98,139.75L217.37,137.17L223.77,140.87L230.16,141.91L236.55,136.49L242.95,144.65L249.34,144.5L255.73,142.63L262.13,139.15L274.91,138.63L281.31,137.41L287.7,140.71L294.09,138.76L300.49,138.57L306.88,135.01L313.27,135.83L319.67,137.84L326.06,137.66L332.45,135.33L338.85,135.22L345.24,133.2L358.03,136.25L364.42,134.81L370.81,131.28L377.21,130.74L383.6,132.57L389.99,131.81L402.78,133.69L409.17,130.91L415.57,130.13L421.96,127.34L428.35,128.11L434.75,125.36L441.14,125.42L447.53,123.95L453.93,124.32L460.32,122.52L466.71,122.38L473.11,124.29L485.89,121.93L492.29,122.4L498.68,122.74L505.07,125.12L511.47,122.93L517.86,123.45L530.65,121.5L537.04,122.01L543.43,122.82L549.83,124.45L569.01,118.65L575.4,119.84L581.79,117.54L588.19,117.27L594.58,116.59L600.97,116.83L613.76,115.75L620.15,114.96L626.55,116.29L632.94,114.98L652.12,116.66L658.51,116.05L664.91,116.08L671.3,117.12L677.69,116.38L684.09,117.23L690.48,116.84L696.87,117.61L728.84,119.43L735.23,118.67L741.63,120.37L748.02,118.52L754.41,119.15L760.81,118.55L767.2,118.83L773.59,118L792.77,118.62L799.17,120.01L805.56,120.71L811.95,122.6L818.35,123.26L824.74,123.06L831.13,121.7L837.53,121.46L850.31,120.41L856.71,120.12L869.49,118.79L875.89,119.65L882.28,121.19L888.67,119.68" style="vector-effect: non-scaling-stroke; fill: none; stroke: rgb(213, 94, 0); stroke-opacity: 1; stroke-width: 2px; opacity: 1;"/></g><g class="points"/><g class="text"/></g><g class="trace scatter trace8361be" style="stroke-miterlimit: 2; opacity: 1;"><g class="fills"/><g class="errorbars"/><g class="lines"><path class="js-line" d="M0,45.23L12.79,49.34L19.18,47.44L25.57,42.95L31.97,46.38L38.36,43.55L44.75,47.65L51.15,46.25L57.54,45.75L63.93,42.23L70.33,40.34L83.11,42.54L89.51,45.05L95.9,44.19L102.29,44.56L108.69,44.69L115.08,41.24L121.47,43.56L127.87,37.03L134.26,38.59L140.65,42.3L147.05,36.34L153.44,46.13L159.83,42.52L166.23,41.38L172.62,45.81L179.01,40.38L185.41,41.62L191.8,39.03L198.19,42.9L204.59,39.54L210.98,44.43L217.37,41.1L230.16,40.45L236.55,43.91L242.95,42.19L249.34,43.43L255.73,44.09L262.13,43.05L268.52,43.94L274.91,46.27L281.31,41.1L287.7,42.73L294.09,43.31L300.49,39.15L306.88,39.46L313.27,38.22L326.06,40.09L332.45,45.15L338.85,46.27L345.24,41.64L351.63,42.1L358.03,40.71L370.81,39.51L377.21,39.42L389.99,37.71L396.39,41.88L402.78,38.26L409.17,44.08L415.57,39.07L421.96,40.15L428.35,39.46L434.75,41.3L441.14,39.76L447.53,45.47L453.93,45.35L460.32,41.94L466.71,40.16L473.11,41.21L479.5,39.95L485.89,39.85L492.29,37.68L498.68,41.07L505.07,40.77L511.47,41.83L517.86,39.87L524.25,44.03L530.65,41.9L537.04,42.72L549.83,45.41L556.22,39.8L562.61,39.07L569.01,42.44L575.4,42.55L581.79,44.46L594.58,42.97L600.97,43.97L607.37,54.14L613.76,43.78L620.15,41.17L626.55,40.94L632.94,39.62L639.33,39.51L645.73,36.86L652.12,38.95L658.51,36.91L664.91,38.43L671.3,32.35L677.69,36.95L684.09,35.07L690.48,36.27L696.87,35.94L703.27,34.72L709.66,31.24L716.05,32.54L722.45,27.3L728.84,33.94L735.23,35.46L741.63,30.01L748.02,32.8L754.41,30.25L767.2,31.65L773.59,31.2L779.99,31.1L786.38,32.34L792.77,28.98L799.17,29.96L811.95,31.78L818.35,32.31L824.74,36.61L831.13,33.88L837.53,35.86L843.92,33.92L850.31,34.46L856.71,33.83L863.1,35.22L869.49,35.76L875.89,32.9L882.28,32.43L888.67,40.94" style="vector-effect: non-scaling-stroke; fill: none; stroke: rgb(204, 121, 167); stroke-opacity: 1; stroke-width: 2px; opacity: 1;"/></g><g class="points"/><g class="text"/></g><g class="trace scatter trace2d4041" style="stroke-miterlimit: 2; opacity: 1;"><g class="fills"/><g class="errorbars"/><g class="lines"><path class="js-line" d="M0,54.33L6.39,50.09L12.79,52.93L19.18,39.7L25.57,49.71L31.97,54.45L38.36,50.1L51.15,49.66L57.54,49.53L63.93,50.88L70.33,50.94L76.72,53.37L83.11,52.82L89.51,56.03L95.9,46.43L102.29,46.67L108.69,40.75L115.08,51.44L121.47,49.12L127.87,45.64L134.26,48.54L140.65,47.42L147.05,48.58L153.44,47.88L159.83,44.96L166.23,50.65L172.62,48.65L179.01,47.1L185.41,46.73L191.8,49.28L198.19,48.89L217.37,43.25L223.77,42.3L230.16,44.21L236.55,42.6L242.95,46.8L249.34,44.24L255.73,44.25L262.13,43.25L268.52,40.17L274.91,39.12L287.7,37.1L294.09,38.08L300.49,38.02L306.88,34.47L313.27,35.78L319.67,35.71L332.45,32.79L338.85,33.05L358.03,32.24L364.42,28.93L370.81,33.72L377.21,30.89L383.6,29.44L389.99,31.85L396.39,36.12L402.78,33.71L409.17,36.3L415.57,34.99L421.96,33.81L428.35,35.26L434.75,32.92L441.14,32.5L453.93,30.2L460.32,30.38L466.71,35.99L473.11,33.63L479.5,31.58L485.89,30.99L492.29,29.73L498.68,31.79L505.07,32.55L511.47,31.73L517.86,30.93L524.25,31.91L537.04,27.97L543.43,29.6L549.83,27.1L556.22,29.36L562.61,27.59L569.01,27.42L575.4,25.56L581.79,25.95L588.19,25.62L594.58,27.58L600.97,25.15L607.37,24.56L613.76,27.12L620.15,27.85L626.55,26.96L632.94,27.44L639.33,27.63L645.73,26.72L652.12,25.52L658.51,28.77L671.3,26.84L677.69,27.13L684.09,25.75L690.48,26.05L709.66,25.74L716.05,27.5L728.84,25.77L735.23,27.96L741.63,24.26L748.02,25.44L754.41,24.05L760.81,25.05L773.59,26.48L779.99,27.07L786.38,28.21L792.77,28.11L799.17,26.52L805.56,26.66L818.35,27.08L824.74,29.62L831.13,32.56L837.53,29.2L843.92,30.62L850.31,31.21L863.1,30.22L869.49,31.16L875.89,29.51L882.28,32.99L888.67,35.68" style="vector-effect: non-scaling-stroke; fill: none; stroke: rgb(0, 0, 0); stroke-opacity: 1; stroke-width: 2px; opacity: 1;"/></g><g class="points"/><g class="text"/></g></g></g><g class="overplot"/><path class="xlines-above crisp" d="M39,482.5H1000M39,0.5H1000" style="fill: none; stroke-width: 1px; stroke: rgb(0, 0, 0); stroke-opacity: 1;"/><path class="ylines-above crisp" d="M39.5,1V482M999.5,1V482" style="fill: none; stroke-width: 1px; stroke: rgb(0, 0, 0); stroke-opacity: 1;"/><g class="overlines-above"/><g class="xaxislayer-above"><g class="xtick"><text text-anchor="middle" x="0" y="497.4" transform="translate(40,0)" style="font-family: 'Open Sans', verdana, arial, sans-serif; font-size: 12px; fill: rgb(42, 63, 95); fill-opacity: 1; white-space: pre;">1870</text></g><g class="xtick"><text text-anchor="middle" x="0" y="497.4" transform="translate(103.93,0)" style="font-family: 'Open Sans', verdana, arial, sans-serif; font-size: 12px; fill: rgb(42, 63, 95); fill-opacity: 1; white-space: pre;">80</text></g><g class="xtick"><text text-anchor="middle" x="0" y="497.4" transform="translate(167.87,0)" style="font-family: 'Open Sans', verdana, arial, sans-serif; font-size: 12px; fill: rgb(42, 63, 95); fill-opacity: 1; white-space: pre;">90</text></g><g class="xtick"><text text-anchor="middle" x="0" y="497.4" transform="translate(231.8,0)" style="font-family: 'Open Sans', verdana, arial, sans-serif; font-size: 12px; fill: rgb(42, 63, 95); fill-opacity: 1; white-space: pre;">1900</text></g><g class="xtick"><text text-anchor="middle" x="0" y="497.4" transform="translate(295.73,0)" style="font-family: 'Open Sans', verdana, arial, sans-serif; font-size: 12px; fill: rgb(42, 63, 95); fill-opacity: 1; white-space: pre;">10</text></g><g class="xtick"><text text-anchor="middle" x="0" y="497.4" transform="translate(359.67,0)" style="font-family: 'Open Sans', verdana, arial, sans-serif; font-size: 12px; fill: rgb(42, 63, 95); fill-opacity: 1; white-space: pre;">20</text></g><g class="xtick"><text text-anchor="middle" x="0" y="497.4" transform="translate(423.6,0)" style="font-family: 'Open Sans', verdana, arial, sans-serif; font-size: 12px; fill: rgb(42, 63, 95); fill-opacity: 1; white-space: pre;">30</text></g><g class="xtick"><text text-anchor="middle" x="0" y="497.4" transform="translate(487.53,0)" style="font-family: 'Open Sans', verdana, arial, sans-serif; font-size: 12px; fill: rgb(42, 63, 95); fill-opacity: 1; white-space: pre;">40</text></g><g class="xtick"><text text-anchor="middle" x="0" y="497.4" transform="translate(551.47,0)" style="font-family: 'Open Sans', verdana, arial, sans-serif; font-size: 12px; fill: rgb(42, 63, 95); fill-opacity: 1; white-space: pre;">50</text></g><g class="xtick"><text text-anchor="middle" x="0" y="497.4" transform="translate(615.4,0)" style="font-family: 'Open Sans', verdana, arial, sans-serif; font-size: 12px; fill: rgb(42, 63, 95); fill-opacity: 1; white-space: pre;">60</text></g><g class="xtick"><text text-anchor="middle" x="0" y="497.4" transform="translate(679.33,0)" style="font-family: 'Open Sans', verdana, arial, sans-serif; font-size: 12px; fill: rgb(42, 63, 95); fill-opacity: 1; white-space: pre;">70</text></g><g class="xtick"><text text-anchor="middle" x="0" y="497.4" transform="translate(743.27,0)" style="font-family: 'Open Sans', verdana, arial, sans-serif; font-size: 12px; fill: rgb(42, 63, 95); fill-opacity: 1; white-space: pre;">80</text></g><g class="xtick"><text text-anchor="middle" x="0" y="497.4" transform="translate(807.2,0)" style="font-family: 'Open Sans', verdana, arial, sans-serif; font-size: 12px; fill: rgb(42, 63, 95); fill-opacity: 1; white-space: pre;">90</text></g><g class="xtick"><text text-anchor="middle" x="0" y="497.4" transform="translate(871.13,0)" style="font-family: 'Open Sans', verdana, arial, sans-serif; font-size: 12px; fill: rgb(42, 63, 95); fill-opacity: 1; white-space: pre;">2000</text></g><g class="xtick"><text text-anchor="middle" x="0" y="497.4" transform="translate(928.67,0)" style="font-family: 'Open Sans', verdana, arial, sans-serif; font-size: 12px; fill: rgb(42, 63, 95); fill-opacity: 1; white-space: pre;">2009</text></g></g><g class="yaxislayer-above"><g class="ytick"><text text-anchor="end" x="36.6" y="4.199999999999999" transform="translate(0,408.07)" style="font-family: 'Open Sans', verdana, arial, sans-serif; font-size: 12px; fill: rgb(42, 63, 95); fill-opacity: 1; white-space: pre;">−0.1</text></g><g class="ytick"><text text-anchor="end" x="36.6" y="4.199999999999999" transform="translate(0,332.1)" style="font-family: 'Open Sans', verdana, arial, sans-serif; font-size: 12px; fill: rgb(42, 63, 95); fill-opacity: 1; white-space: pre;">−0.05</text></g><g class="ytick"><text text-anchor="end" x="36.6" y="4.199999999999999" transform="translate(0,256.14)" style="font-family: 'Open Sans', verdana, arial, sans-serif; font-size: 12px; fill: rgb(42, 63, 95); fill-opacity: 1; white-space: pre;">0</text></g><g class="ytick"><text text-anchor="end" x="36.6" y="4.199999999999999" transform="translate(0,180.18)" style="font-family: 'Open Sans', verdana, arial, sans-serif; font-size: 12px; fill: rgb(42, 63, 95); fill-opacity: 1; white-space: pre;">0.05</text></g><g class="ytick"><text text-anchor="end" x="36.6" y="4.199999999999999" transform="translate(0,104.21)" style="font-family: 'Open Sans', verdana, arial, sans-serif; font-size: 12px; fill: rgb(42, 63, 95); fill-opacity: 1; white-space: pre;">0.1</text></g><g class="ytick"><text text-anchor="end" x="36.6" y="4.199999999999999" transform="translate(0,28.25)" style="font-family: 'Open Sans', verdana, arial, sans-serif; font-size: 12px; fill: rgb(42, 63, 95); fill-opacity: 1; white-space: pre;">0.15</text></g></g><g class="overaxes-above"/></g></g><g class="polarlayer"/><g class="ternarylayer"/><g class="geolayer"/><g class="funnelarealayer"/><g class="pielayer"/><g class="treemaplayer"/><g class="sunburstlayer"/><g class="glimages"/><defs id="topdefs-381871"><g class="clips"/></defs><g class="layer-above"><g class="imagelayer"/><g class="shapelayer"/></g><g class="infolayer"><g class="g-gtitle"/><g class="g-xtitle"/><g class="g-ytitle"/><g class="annotation" data-index="0" style="opacity: 1;"><g class="annotation-text-g" transform="rotate(0,935.07,132.75)"><g class="cursor-pointer" transform="translate(914, 123)"><rect class="bg" x="0.5" y="0.5" width="42" height="19" style="stroke-width: 1px; stroke: rgb(0, 0, 0); stroke-opacity: 0; fill: rgb(0, 0, 0); fill-opacity: 0;"/><text class="annotation-text" text-anchor="middle" x="21.09375" y="15" style="font-family: 'Tex Gyre Pagella'; font-size: 12px; fill: rgb(230, 159, 0); fill-opacity: 1; white-space: pre;">French</text></g></g></g><g class="annotation" data-index="1" style="opacity: 1;"><g class="annotation-text-g" transform="rotate(0,935.07,333.14)"><g class="cursor-pointer" transform="translate(910, 323)"><rect class="bg" x="0.5" y="0.5" width="49" height="19" style="stroke-width: 1px; stroke: rgb(0, 0, 0); stroke-opacity: 0; fill: rgb(0, 0, 0); fill-opacity: 0;"/><text class="annotation-text" text-anchor="middle" x="24.671875" y="15" style="font-family: 'Tex Gyre Pagella'; font-size: 12px; fill: rgb(0, 0, 0); fill-opacity: 1; white-space: pre;">German</text></g></g></g><g class="annotation" data-index="2" style="opacity: 1;"><g class="annotation-text-g" transform="rotate(0,935.07,185.08)"><g class="cursor-pointer" transform="translate(915, 175)"><rect class="bg" x="0.5" y="0.5" width="40" height="19" style="stroke-width: 1px; stroke: rgb(0, 0, 0); stroke-opacity: 0; fill: rgb(0, 0, 0); fill-opacity: 0;"/><text class="annotation-text" text-anchor="middle" x="19.953125" y="15" style="font-family: 'Tex Gyre Pagella'; font-size: 12px; fill: rgb(0, 158, 115); fill-opacity: 1; white-space: pre;">Italian</text></g></g></g><g class="annotation" data-index="3" style="opacity: 1;"><g class="annotation-text-g" transform="rotate(0,935.07,113.08)"><g class="cursor-pointer" transform="translate(911, 103)"><rect class="bg" x="0.5" y="0.5" width="48" height="19" style="stroke-width: 1px; stroke: rgb(0, 0, 0); stroke-opacity: 0; fill: rgb(0, 0, 0); fill-opacity: 0;"/><text class="annotation-text" text-anchor="middle" x="24.015625" y="15" style="font-family: 'Tex Gyre Pagella'; font-size: 12px; fill: rgb(213, 94, 0); fill-opacity: 1; white-space: pre;">Spanish</text></g></g></g><g class="annotation" data-index="4" style="opacity: 1;"><g class="annotation-text-g" transform="rotate(0,935.07,49.53)"><g class="cursor-pointer" transform="translate(893, 40)"><rect class="bg" x="0.5" y="0.5" width="84" height="19" style="stroke-width: 1px; stroke: rgb(0, 0, 0); stroke-opacity: 0; fill: rgb(0, 0, 0); fill-opacity: 0;"/><text class="annotation-text" text-anchor="middle" x="42.03125" y="15" style="font-family: 'Tex Gyre Pagella'; font-size: 12px; fill: rgb(204, 121, 167); fill-opacity: 1; white-space: pre;">British English</text></g></g></g><g class="annotation" data-index="5" style="opacity: 1;"><g class="annotation-text-g" transform="rotate(0,935.07,21.48)"><g class="cursor-pointer" transform="translate(884, 11)"><rect class="bg" x="0.5" y="0.5" width="101" height="19" style="stroke-width: 1px; stroke: rgb(0, 0, 0); stroke-opacity: 0; fill: rgb(0, 0, 0); fill-opacity: 0;"/><text class="annotation-text" text-anchor="middle" x="50.625" y="15" style="font-family: 'Tex Gyre Pagella'; font-size: 12px; fill: rgb(0, 0, 0); fill-opacity: 1; white-space: pre;">American English</text></g></g></g><g class="annotation" data-index="6" style="opacity: 1;"><g class="annotation-text-g" transform="rotate(0,935.07,432.37)"><g class="cursor-pointer" transform="translate(911, 422)"><rect class="bg" x="0.5" y="0.5" width="47" height="19" style="stroke-width: 1px; stroke: rgb(0, 0, 0); stroke-opacity: 0; fill: rgb(0, 0, 0); fill-opacity: 0;"/><text class="annotation-text" text-anchor="middle" x="23.734375" y="15" style="font-family: 'Tex Gyre Pagella'; font-size: 12px; fill: rgb(86, 180, 233); fill-opacity: 1; white-space: pre;">Russian</text></g></g></g><g class="annotation" data-index="7" style="opacity: 1;"><g class="annotation-text-g" transform="rotate(0,935.07,162.38)"><g class="cursor-pointer" transform="translate(882, 152)"><rect class="bg" x="0.5" y="0.5" width="106" height="19" style="stroke-width: 1px; stroke: rgb(0, 0, 0); stroke-opacity: 0; fill: rgb(0, 0, 0); fill-opacity: 0;"/><text class="annotation-text" text-anchor="middle" x="53.109375" y="15" style="font-family: 'Tex Gyre Pagella'; font-size: 12px; fill: rgb(0, 114, 178); fill-opacity: 1; white-space: pre;">Chinese Simplified</text></g></g></g></g></svg>