<svg class="main-svg" xmlns="http://www.w3.org/2000/svg" xmlns:xlink="http://www.w3.org/1999/xlink" width="1000" height="500" viewBox="0 0 1000 500"><rect x="0" y="0" width="1000" height="500" style="fill: rgb(0, 0, 0); fill-opacity: 0;"/><defs id="defs-db5353"><g class="clips"><clipPath id="clipdb5353xyplot" class="plotclip"><rect width="962" height="475"/></clipPath><clipPath class="axesclip" id="clipdb5353x"><rect x="37" y="0" width="962" height="500"/></clipPath><clipPath class="axesclip" id="clipdb5353y"><rect x="0" y="1" width="1000" height="475"/></clipPath><clipPath class="axesclip" id="clipdb5353xy"><rect x="37" y="1" width="962" height="475"/></clipPath></g><g class="gradients"/></defs><g class="bglayer"><rect class="bg" x="37" y="1" width="962" height="475" style="fill: rgb(0, 0, 0); fill-opacity: 0; stroke-width: 0;"/></g><g class="layer-below"><g class="imagelayer"/><g class="shapelayer"/></g><g class="cartesianlayer"><g class="subplot xy"><g class="layer-subplot"><g class="shapelayer"/><g class="imagelayer"/></g><g class="gridlayer"><g class="x"><path class="xgrid crisp" transform="translate(101.13,0)" d="M0,1v475" style="stroke: rgb(211, 211, 211); stroke-opacity: 1; stroke-width: 0.3px;"/><path class="xgrid crisp" transform="translate(229.4,0)" d="M0,1v475" style="stroke: rgb(211, 211, 211); stroke-opacity: 1; stroke-width: 0.3px;"/><path class="xgrid crisp" transform="translate(357.67,0)" d="M0,1v475" style="stroke: rgb(211, 211, 211); stroke-opacity: 1; stroke-width: 0.3px;"/><path class="xgrid crisp" transform="translate(485.93,0)" d="M0,1v475" style="stroke: rgb(211, 211, 211); stroke-opacity: 1; stroke-width: 0.3px;"/><path class="xgrid crisp" transform="translate(614.2,0)" d="M0,1v475" style="stroke: rgb(211, 211, 211); stroke-opacity: 1; stroke-width: 0.3px;"/><path class="xgrid crisp" transform="translate(742.47,0)" d="M0,1v475" style="stroke: rgb(211, 211, 211); stroke-opacity: 1; stroke-width: 0.3px;"/><path class="xgrid crisp" transform="translate(870.73,0)" d="M0,1v475" style="stroke: rgb(211, 211, 211); stroke-opacity: 1; stroke-width: 0.3px;"/></g><g class="y"/></g><g class="zerolinelayer"/><path class="xlines-below"/><path class="ylines-below"/><g class="overlines-below"/><g class="xaxislayer-below"/><g class="yaxislayer-below"/><g class="overaxes-below"/><g class="plot" transform="translate(37, 1)" clip-path="url('#clipdb5353xyplot')"><g class="scatterlayer mlayer"><g class="trace scatter trace84c456" style="stroke-miterlimit: 2; opacity: 1;"><g class="fills"/><g class="errorbars"/><g class="lines"><path class="js-line" d="M340,146.42L346.67,149.23L353.33,161.47L360,152.07L366.67,129.84L373.33,137.33L380,140.54L386.67,139.98L393.33,135.65L400,146.58L406.67,144.83L413.33,159.99L420,145.51L426.67,161.13L433.33,157.61L440,144.76L446.67,143.6L453.33,153.36L460,141.31L473.33,142.92L480,148.1L486.67,140.02L493.33,133.71L500,139.38L506.67,120.79L513.33,144.99L520,143.41L533.33,145.55L540,135.75L546.67,135.56L553.33,156.26L560,142.47L566.67,145L586.67,144.89L593.33,148.44L600,139.4L606.67,145.74L613.33,148.75L620,149.39L626.67,145.01L633.33,157.29L640,144.09L646.67,147.89L653.33,144.29L660,146.14L666.67,146.58L673.33,182.97L680,159.68L686.67,160.26L693.33,161.35L700,166.47L706.67,148.26L713.33,146.35L726.67,149.06L733.33,146.78L746.67,142.75L753.33,141.75L773.33,144.23L780,146.54L786.67,147.02L793.33,145.99L813.33,145.07L820,147.1L826.67,147.35L833.33,146.7L846.67,148.65L853.33,158.33L860,158.26L866.67,155.59L880,153.11L886.67,152.38L900,150.67L906.67,150.64L913.33,148.02L920,150.84L926.67,167.75" style="vector-effect: non-scaling-stroke; fill: none; stroke: rgb(0, 0, 0); stroke-opacity: 1; stroke-width: 0px; opacity: 1;"/><path class="js-line" d="M327.08,139.1L333.49,141.77L339.91,153.39L346.32,144.47L352.73,123.35L359.15,130.46L365.56,133.51L371.97,132.98L378.39,128.87L384.8,139.25L391.21,137.59L397.63,151.99L404.04,138.23L410.45,153.08L416.87,149.73L423.28,137.52L429.69,136.42L436.11,145.7L442.52,134.25L455.35,135.77L461.76,140.7L468.17,133.02L474.59,127.02L481,132.41L487.41,114.75L493.83,137.74L500.24,136.24L513.07,138.27L519.48,128.96L525.89,128.78L532.31,148.45L538.72,135.35L545.13,137.75L564.37,137.64L570.79,141.02L577.2,132.43L583.61,138.45L590.03,141.32L596.44,141.92L602.85,137.76L609.27,149.43L615.68,136.89L622.09,140.5L628.51,137.08L634.92,138.83L641.33,139.25L647.75,173.82L654.16,151.69L660.57,152.24L666.99,153.28L673.4,158.15L679.81,140.85L686.23,139.03L699.05,141.6L705.47,139.44L718.29,135.62L724.71,134.66L743.95,137.02L750.36,139.21L756.77,139.67L763.19,138.69L782.43,137.82L788.84,139.74L795.25,139.99L801.67,139.37L814.49,141.22L820.91,150.41L827.32,150.35L833.73,147.81L846.56,145.46L852.97,144.76L865.8,143.13L872.21,143.1L878.63,140.62L885.04,143.3L891.45,159.36" style="vector-effect: non-scaling-stroke; fill: none; stroke: rgb(0, 114, 178); stroke-opacity: 1; stroke-width: 2px; opacity: 1;"/></g><g class="points"/><g class="text"/></g><g class="trace scatter tracecbb151" style="stroke-miterlimit: 2; opacity: 1;"><g class="fills"/><g class="errorbars"/><g class="lines"><path class="js-line" d="M0,151.89L6.41,148.6L12.83,149.13L32.07,150.45L38.48,149.2L44.89,151.65L51.31,151.87L57.72,150.25L64.13,150.58L70.55,150.17L76.96,150.95L83.37,149.98L89.79,150.34L102.61,148.77L109.03,150.07L115.44,147.85L121.85,147.93L134.68,149.96L141.09,150.64L160.33,148.58L166.75,149.79L173.16,148.53L179.57,149.68L185.99,146.22L192.4,148.49L198.81,147.72L205.23,149.47L211.64,148.44L218.05,148.46L230.88,147.13L237.29,148.32L256.53,147.99L262.95,147.14L269.36,150.12L275.77,150.22L282.19,148.31L288.6,148.08L301.43,146.06L307.84,146.67L314.25,145.39L320.67,146.42L327.08,144.32L333.49,144.71L339.91,145.68L346.32,144.09L352.73,145.57L359.15,144.25L365.56,143.66L371.97,145.49L378.39,143.41L384.8,145.6L391.21,142.76L397.63,141.52L404.04,143.05L410.45,141.99L416.87,138.74L423.28,138.53L429.69,137.48L436.11,138.9L448.93,141.08L455.35,140.27L461.76,136.6L468.17,140.1L474.59,134.58L481,135.45L493.83,134.7L500.24,132.4L513.07,132.67L519.48,133.78L525.89,130.21L532.31,130.03L545.13,128.53L551.55,126.68L557.96,126.29L564.37,127.35L577.2,128.84L583.61,125.83L590.03,125.8L596.44,123.98L602.85,126.98L609.27,126.62L628.51,129.49L634.92,127.87L647.75,126.86L654.16,127.16L666.99,128.55L673.4,127.46L679.81,128.91L686.23,127.19L692.64,126.63L699.05,125.29L705.47,124.03L711.88,124.86L718.29,124.13L724.71,124.59L731.12,124.71L737.53,123.96L743.95,124.47L750.36,124.22L769.6,125.68L776.01,123.92L788.84,124.89L795.25,123.63L801.67,123.32L808.08,123.96L814.49,123.1L820.91,124.12L827.32,124.35L833.73,122.94L846.56,122.93L852.97,121.75L865.8,122.03L872.21,123.87L891.45,122.6" style="vector-effect: non-scaling-stroke; fill: none; stroke: rgb(230, 159, 0); stroke-opacity: 1; stroke-width: 2px; opacity: 1;"/></g><g class="points"/><g class="text"/></g><g class="trace scatter trace002267" style="stroke-miterlimit: 2; opacity: 1;"><g class="fills"/><g class="errorbars"/><g class="lines"><path class="js-line" d="M0,336.74L12.83,330.76L19.24,339.75L25.65,333.32L32.07,329.78L38.48,341.92L44.89,338.53L51.31,331.49L57.72,329.8L64.13,332.44L70.55,341.29L76.96,338.43L83.37,331.14L89.79,328.87L96.2,334.59L109.03,341.08L115.44,339.7L121.85,336.06L128.27,339.82L134.68,333.9L141.09,332.76L153.92,339.54L160.33,335.84L166.75,337.99L173.16,336.47L179.57,334.9L185.99,334.51L192.4,336.35L198.81,336.43L205.23,334.74L211.64,329.85L218.05,336L224.47,328.88L237.29,329.52L243.71,331.33L250.12,330.08L256.53,327.51L262.95,331.94L269.36,333.29L275.77,329.45L282.19,329.63L288.6,327.68L295.01,323.84L307.84,324.87L314.25,328.87L320.67,326.81L327.08,321.64L333.49,324.8L339.91,322.4L352.73,325.49L359.15,326.75L365.56,328.33L371.97,325.56L378.39,332.11L384.8,324.72L391.21,319.76L397.63,317.16L404.04,318.15L410.45,322.16L416.87,322.41L423.28,319.3L429.69,318.9L436.11,319.45L442.52,320.44L448.93,318.83L455.35,319.94L461.76,324.86L468.17,320.59L474.59,320.26L481,318.55L487.41,316L493.83,319.95L500.24,318.45L506.65,321.07L513.07,321.78L519.48,316.76L525.89,321.59L532.31,322.1L538.72,325.63L545.13,320.9L551.55,319.53L557.96,323.53L564.37,324.62L583.61,323.97L590.03,321.59L596.44,322.84L602.85,325.59L609.27,325.92L615.68,324.2L622.09,323.44L628.51,324.41L634.92,326.74L641.33,327.95L647.75,328.58L654.16,325.05L666.99,318.63L673.4,319.48L679.81,320.19L686.23,319.33L692.64,322.94L699.05,318.16L705.47,321.79L711.88,320.82L718.29,320.76L724.71,319.22L731.12,317.67L737.53,322.38L743.95,318.84L750.36,320.63L756.77,317.58L763.19,319.07L769.6,315.54L776.01,314.21L788.84,316.94L795.25,319.69L801.67,316.65L808.08,318.17L814.49,319.82L820.91,320.32L833.73,315.47L840.15,316.75L846.56,318.21L852.97,317.94L859.39,318.5L865.8,318.09L878.63,322.71L885.04,322.32L891.45,322.16" style="vector-effect: non-scaling-stroke; fill: none; stroke: rgb(240, 228, 66); stroke-opacity: 1; stroke-width: 2px; opacity: 1;"/></g><g class="points"/><g class="text"/></g><g class="trace scatter trace53b9ef" style="stroke-miterlimit: 2; opacity: 1;"><g class="fills"/><g class="errorbars"/><g class="lines"><path class="js-line" d="M0,201.46L6.41,196.76L12.83,196.59L19.24,203.66L25.65,202.69L32.07,201.89L38.48,202.54L44.89,199.85L51.31,193.46L57.72,200.01L64.13,198.58L70.55,193.58L76.96,193.46L83.37,202.15L89.79,196.88L96.2,194.24L102.61,195.71L109.03,192.64L115.44,195.13L121.85,191.76L128.27,193L134.68,191.18L141.09,186.67L153.92,187.99L160.33,185.29L166.75,186.46L173.16,185.78L179.57,182.91L185.99,183.47L192.4,185.8L198.81,182.39L205.23,182.23L211.64,183.54L218.05,182.24L224.47,182.7L230.88,182.77L237.29,181.19L243.71,181.97L250.12,187.09L256.53,180.47L262.95,194.51L269.36,180.79L275.77,185.72L282.19,182.69L288.6,184.67L295.01,184.92L301.43,182L307.84,184.19L314.25,183.8L327.08,188.43L333.49,193.59L339.91,188.36L346.32,186.56L352.73,189.27L359.15,189.47L365.56,187.25L371.97,186.73L378.39,187.19L384.8,188.56L391.21,187.66L397.63,194.72L404.04,186.66L410.45,186.57L416.87,189.24L423.28,190.28L429.69,185.88L436.11,187.92L442.52,182.97L448.93,187.26L461.76,185.74L468.17,182.09L474.59,185.08L481,182.71L487.41,184.17L493.83,182.91L500.24,186.04L506.65,181.21L513.07,180.14L519.48,182.29L532.31,183.04L538.72,180.63L545.13,182.44L551.55,180.76L557.96,181.04L564.37,183.95L570.79,181.99L577.2,182.13L583.61,182.8L590.03,182.01L596.44,182.59L602.85,179.44L609.27,180.88L615.68,181.12L628.51,183.81L634.92,180.71L641.33,181.36L647.75,182.9L654.16,181.32L660.57,187L666.99,181.06L673.4,180.74L679.81,181.92L686.23,181.31L692.64,182.74L699.05,181.58L705.47,181.86L711.88,181.04L724.71,181.26L731.12,181.75L737.53,180.53L743.95,180.34L750.36,178.86L756.77,179.92L763.19,180.04L769.6,179.11L776.01,179.02L782.43,181.63L788.84,182.65L795.25,181.36L808.08,180L814.49,181.17L840.15,177.95L846.56,178.19L852.97,175.39L859.39,174.37L865.8,175.34L872.21,174.27L878.63,175.09L885.04,174.4L891.45,174.29" style="vector-effect: non-scaling-stroke; fill: none; stroke: rgb(0, 158, 115); stroke-opacity: 1; stroke-width: 2px; opacity: 1;"/></g><g class="points"/><g class="text"/></g><g class="trace scatter trace6bf888" style="stroke-miterlimit: 2; opacity: 1;"><g class="fills"/><g class="errorbars"/><g class="lines"><path class="js-line" d="M0,448.81L6.41,448.39L12.83,448.98L25.65,450.15L32.07,447.5L38.48,447.6L44.89,449.45L57.72,449.58L64.13,445.49L70.55,451.25L76.96,446.18L83.37,448.61L89.79,445.79L96.2,446.58L102.61,444.78L109.03,447.49L115.44,446.02L121.85,444.79L128.27,445.94L134.68,448.58L141.09,447.1L147.51,446.09L153.92,446.76L160.33,444.67L166.75,446L173.16,446.31L179.57,448.62L185.99,446.72L192.4,447.21L205.23,448.06L211.64,447.85L218.05,446.64L224.47,446.81L230.88,446.03L237.29,446.55L256.53,446.65L262.95,447.23L282.19,445.38L288.6,447L295.01,445.94L301.43,429.47L307.84,441.53L314.25,437.08L320.67,430.82L327.08,432.97L333.49,432.61L339.91,431.01L346.32,426.45L352.73,429.72L359.15,427.16L365.56,427.52L371.97,426.25L378.39,427.03L384.8,427.24L391.21,426.27L397.63,418.35L404.04,430L410.45,427.16L416.87,425.48L429.69,425.69L436.11,423.09L442.52,424.93L448.93,422.82L468.17,425.05L474.59,417.48L481,422.86L487.41,423.38L493.83,425.29L500.24,426.33L506.65,426.29L513.07,424.44L519.48,420.83L525.89,424.17L532.31,422L538.72,421.98L564.37,420.25L570.79,420.5L577.2,421.11L583.61,419.57L596.44,420.09L602.85,421.4L615.68,420.19L622.09,421.1L634.92,420.9L641.33,421.21L654.16,420.01L660.57,420.46L666.99,420.63L673.4,419.5L679.81,418.98L686.23,422.22L692.64,419.32L699.05,419.04L737.53,420.72L743.95,420.49L750.36,421.61L756.77,420.97L776.01,421.82L782.43,419.56L801.67,414.72L808.08,414.51L827.32,417.14L833.73,416.59L846.56,417.69L852.97,416.66L872.21,417.3L878.63,415.92L885.04,416.28L891.45,418.49" style="vector-effect: non-scaling-stroke; fill: none; stroke: rgb(86, 180, 233); stroke-opacity: 1; stroke-width: 2px; opacity: 1;"/></g><g class="points"/><g class="text"/></g><g class="trace scatter trace6b779b" style="stroke-miterlimit: 2; opacity: 1;"><g class="fills"/><g class="errorbars"/><g class="lines"><path class="js-line" d="M0,143.89L6.41,145.34L12.83,153.82L19.24,145.85L25.65,142.23L32.07,151.01L38.48,141.88L44.89,139.59L51.31,157.21L57.72,136.3L64.13,135.09L70.55,141.26L76.96,140.9L83.37,147.6L89.79,139.15L96.2,141.08L102.61,147.52L115.44,137.82L121.85,138.45L128.27,143.37L134.68,144.31L141.09,143.51L147.51,139.68L153.92,138.98L160.33,137.41L166.75,140.4L173.16,139.56L179.57,138.79L185.99,141.57L192.4,130.13L198.81,138.04L205.23,137.43L211.64,138.01L218.05,135.46L224.47,139.11L230.88,140.14L237.29,134.79L243.71,142.85L250.12,142.69L256.53,140.85L262.95,137.42L275.77,136.9L282.19,135.7L288.6,138.95L295.01,137.03L301.43,136.84L307.84,133.33L314.25,134.14L320.67,136.12L327.08,135.94L333.49,133.64L339.91,133.54L346.32,131.54L359.15,134.55L365.56,133.13L371.97,129.65L378.39,129.11L384.8,130.91L391.21,130.17L404.04,132.03L410.45,129.27L416.87,128.5L423.28,125.75L429.69,126.52L436.11,123.8L442.52,123.86L448.93,122.41L455.35,122.77L461.76,121L468.17,120.85L474.59,122.74L487.41,120.41L493.83,120.87L500.24,121.21L506.65,123.56L513.07,121.4L519.48,121.91L532.31,119.98L538.72,120.49L545.13,121.29L551.55,122.9L570.79,117.17L577.2,118.34L583.61,116.07L590.03,115.8L596.44,115.13L602.85,115.37L615.68,114.3L622.09,113.53L628.51,114.84L634.92,113.55L654.16,115.21L660.57,114.6L666.99,114.63L673.4,115.66L679.81,114.93L686.23,115.76L692.64,115.38L699.05,116.14L731.12,117.94L737.53,117.19L743.95,118.87L750.36,117.04L756.77,117.66L763.19,117.07L769.6,117.34L776.01,116.53L795.25,117.14L801.67,118.52L808.08,119.2L814.49,121.07L820.91,121.72L827.32,121.52L833.73,120.18L840.15,119.95L852.97,118.91L859.39,118.62L872.21,117.31L878.63,118.15L885.04,119.68L891.45,118.18" style="vector-effect: non-scaling-stroke; fill: none; stroke: rgb(213, 94, 0); stroke-opacity: 1; stroke-width: 2px; opacity: 1;"/></g><g class="points"/><g class="text"/></g><g class="trace scatter trace375847" style="stroke-miterlimit: 2; opacity: 1;"><g class="fills"/><g class="errorbars"/><g class="lines"><path class="js-line" d="M0,44.66L12.83,48.73L19.24,46.85L25.65,42.41L32.07,45.81L38.48,43.01L44.89,47.05L51.31,45.68L57.72,45.18L64.13,41.7L70.55,39.84L83.37,42.01L89.79,44.48L96.2,43.64L102.61,44.01L109.03,44.13L115.44,40.73L121.85,43.01L128.27,36.57L134.68,38.1L141.09,41.78L147.51,35.88L153.92,45.56L160.33,41.99L166.75,40.86L173.16,45.24L179.57,39.88L185.99,41.1L192.4,38.54L198.81,42.37L205.23,39.05L211.64,43.88L218.05,40.59L230.88,39.94L237.29,43.36L243.71,41.66L250.12,42.89L256.53,43.54L262.95,42.52L269.36,43.39L275.77,45.7L282.19,40.59L288.6,42.2L295.01,42.77L301.43,38.66L307.84,38.97L314.25,37.74L327.08,39.59L333.49,44.59L339.91,45.69L346.32,41.12L352.73,41.58L359.15,40.2L371.97,39.02L378.39,38.93L391.21,37.24L397.63,41.36L404.04,37.78L410.45,43.53L416.87,38.58L423.28,39.65L429.69,38.97L436.11,40.78L442.52,39.27L448.93,44.9L455.35,44.78L461.76,41.42L468.17,39.65L474.59,40.7L481,39.45L487.41,39.35L493.83,37.21L500.24,40.56L506.65,40.27L513.07,41.3L519.48,39.38L525.89,43.48L532.31,41.38L538.72,42.19L551.55,44.84L557.96,39.3L564.37,38.58L570.79,41.91L577.2,42.02L583.61,43.91L596.44,42.43L602.85,43.43L609.27,53.46L615.68,43.23L622.09,40.65L628.51,40.43L634.92,39.13L641.33,39.02L647.75,36.4L654.16,38.47L660.57,36.45L666.99,37.95L673.4,31.95L679.81,36.49L686.23,34.63L692.64,35.82L699.05,35.49L705.47,34.29L711.88,30.85L718.29,32.14L724.71,26.96L731.12,33.52L737.53,35.02L743.95,29.63L750.36,32.39L756.77,29.87L769.6,31.25L776.01,30.81L782.43,30.71L788.84,31.93L795.25,28.62L801.67,29.59L814.49,31.38L820.91,31.91L827.32,36.16L833.73,33.45L840.15,35.41L846.56,33.49L852.97,34.03L859.39,33.41L865.8,34.78L872.21,35.32L878.63,32.49L885.04,32.03L891.45,40.43" style="vector-effect: non-scaling-stroke; fill: none; stroke: rgb(204, 121, 167); stroke-opacity: 1; stroke-width: 2px; opacity: 1;"/></g><g class="points"/><g class="text"/></g><g class="trace scatter trace3ffb4c" style="stroke-miterlimit: 2; opacity: 1;"><g class="fills"/><g class="errorbars"/><g class="lines"><path class="js-line" d="M0,53.65L6.41,49.46L12.83,52.27L19.24,39.21L25.65,49.09L32.07,53.77L38.48,49.47L51.31,49.04L57.72,48.91L64.13,50.25L70.55,50.3L76.96,52.71L83.37,52.16L89.79,55.33L96.2,45.85L102.61,46.09L109.03,40.25L115.44,50.79L121.85,48.51L128.27,45.07L134.68,47.93L141.09,46.83L147.51,47.97L153.92,47.29L160.33,44.4L166.75,50.02L173.16,48.05L179.57,46.51L185.99,46.14L192.4,48.67L198.81,48.28L218.05,42.71L224.47,41.77L230.88,43.66L237.29,42.07L243.71,46.21L250.12,43.69L256.53,43.69L262.95,42.71L269.36,39.67L275.77,38.63L288.6,36.64L295.01,37.61L301.43,37.55L307.84,34.04L314.25,35.33L320.67,35.26L333.49,32.38L339.91,32.63L359.15,31.84L365.56,28.57L371.97,33.29L378.39,30.5L384.8,29.07L391.21,31.45L397.63,35.67L404.04,33.29L410.45,35.85L416.87,34.55L423.28,33.38L429.69,34.82L436.11,32.51L442.52,32.1L455.35,29.82L461.76,30L468.17,35.54L474.59,33.21L481,31.18L487.41,30.6L493.83,29.36L500.24,31.4L506.65,32.15L513.07,31.33L519.48,30.54L525.89,31.51L538.72,27.63L545.13,29.23L551.55,26.76L557.96,29L564.37,27.25L570.79,27.08L577.2,25.24L583.61,25.63L590.03,25.3L596.44,27.24L602.85,24.84L609.27,24.25L615.68,26.78L622.09,27.51L628.51,26.62L634.92,27.09L641.33,27.29L647.75,26.39L654.16,25.2L660.57,28.41L673.4,26.51L679.81,26.79L686.23,25.43L692.64,25.73L711.88,25.41L718.29,27.15L731.12,25.45L737.53,27.61L743.95,23.95L750.36,25.12L756.77,23.75L763.19,24.74L776.01,26.15L782.43,26.73L788.84,27.86L795.25,27.76L801.67,26.19L808.08,26.33L820.91,26.74L827.32,29.25L833.73,32.16L840.15,28.84L846.56,30.24L852.97,30.82L865.8,29.84L872.21,30.77L878.63,29.15L885.04,32.57L891.45,35.23" style="vector-effect: non-scaling-stroke; fill: none; stroke: rgb(0, 0, 0); stroke-opacity: 1; stroke-width: 2px; opacity: 1;"/></g><g class="points"/><g class="text"/></g></g></g><g class="overplot"/><path class="xlines-above crisp" d="M36,476.5H1000M36,0.5H1000" style="fill: none; stroke-width: 1px; stroke: rgb(0, 0, 0); stroke-opacity: 1;"/><path class="ylines-above crisp" d="M36.5,1V476M999.5,1V476" style="fill: none; stroke-width: 1px; stroke: rgb(0, 0, 0); stroke-opacity: 1;"/><g class="overlines-above"/><g class="xaxislayer-above"><path class="xtick ticks crisp" d="M0,477v5" transform="translate(101.13,0)" style="stroke: rgb(68, 68, 68); stroke-opacity: 1; stroke-width: 1px;"/><path class="xtick ticks crisp" d="M0,477v5" transform="translate(229.4,0)" style="stroke: rgb(68, 68, 68); stroke-opacity: 1; stroke-width: 1px;"/><path class="xtick ticks crisp" d="M0,477v5" transform="translate(357.67,0)" style="stroke: rgb(68, 68, 68); stroke-opacity: 1; stroke-width: 1px;"/><path class="xtick ticks crisp" d="M0,477v5" transform="translate(485.93,0)" style="stroke: rgb(68, 68, 68); stroke-opacity: 1; stroke-width: 1px;"/><path class="xtick ticks crisp" d="M0,477v5" transform="translate(614.2,0)" style="stroke: rgb(68, 68, 68); stroke-opacity: 1; stroke-width: 1px;"/><path class="xtick ticks crisp" d="M0,477v5" transform="translate(742.47,0)" style="stroke: rgb(68, 68, 68); stroke-opacity: 1; stroke-width: 1px;"/><path class="xtick ticks crisp" d="M0,477v5" transform="translate(870.73,0)" style="stroke: rgb(68, 68, 68); stroke-opacity: 1; stroke-width: 1px;"/><g class="xtick"><text text-anchor="middle" x="0" y="496.4" transform="translate(101.13,0)" style="font-family: 'Tex Gyre Pagella'; font-size: 12px; fill: rgb(42, 63, 95); fill-opacity: 1; white-space: pre;">1880</text></g><g class="xtick"><text text-anchor="middle" x="0" y="496.4" transform="translate(229.4,0)" style="font-family: 'Tex Gyre Pagella'; font-size: 12px; fill: rgb(42, 63, 95); fill-opacity: 1; white-space: pre;">1900</text></g><g class="xtick"><text text-anchor="middle" x="0" y="496.4" transform="translate(357.67,0)" style="font-family: 'Tex Gyre Pagella'; font-size: 12px; fill: rgb(42, 63, 95); fill-opacity: 1; white-space: pre;">1920</text></g><g class="xtick"><text text-anchor="middle" x="0" y="496.4" transform="translate(485.93,0)" style="font-family: 'Tex Gyre Pagella'; font-size: 12px; fill: rgb(42, 63, 95); fill-opacity: 1; white-space: pre;">1940</text></g><g class="xtick"><text text-anchor="middle" x="0" y="496.4" transform="translate(614.2,0)" style="font-family: 'Tex Gyre Pagella'; font-size: 12px; fill: rgb(42, 63, 95); fill-opacity: 1; white-space: pre;">1960</text></g><g class="xtick"><text text-anchor="middle" x="0" y="496.4" transform="translate(742.47,0)" style="font-family: 'Tex Gyre Pagella'; font-size: 12px; fill: rgb(42, 63, 95); fill-opacity: 1; white-space: pre;">1980</text></g><g class="xtick"><text text-anchor="middle" x="0" y="496.4" transform="translate(870.73,0)" style="font-family: 'Tex Gyre Pagella'; font-size: 12px; fill: rgb(42, 63, 95); fill-opacity: 1; white-space: pre;">2000</text></g></g><g class="yaxislayer-above"><path class="ytick ticks crisp" d="M36,0h-5" transform="translate(0,402.99)" style="stroke: rgb(68, 68, 68); stroke-opacity: 1; stroke-width: 1px;"/><path class="ytick ticks crisp" d="M36,0h-5" transform="translate(0,327.97)" style="stroke: rgb(68, 68, 68); stroke-opacity: 1; stroke-width: 1px;"/><path class="ytick ticks crisp" d="M36,0h-5" transform="translate(0,252.96)" style="stroke: rgb(68, 68, 68); stroke-opacity: 1; stroke-width: 1px;"/><path class="ytick ticks crisp" d="M36,0h-5" transform="translate(0,177.94)" style="stroke: rgb(68, 68, 68); stroke-opacity: 1; stroke-width: 1px;"/><path class="ytick ticks crisp" d="M36,0h-5" transform="translate(0,102.92)" style="stroke: rgb(68, 68, 68); stroke-opacity: 1; stroke-width: 1px;"/><path class="ytick ticks crisp" d="M36,0h-5" transform="translate(0,27.91)" style="stroke: rgb(68, 68, 68); stroke-opacity: 1; stroke-width: 1px;"/><g class="ytick"><text text-anchor="end" x="28.6" y="4.199999999999999" transform="translate(0,402.99)" style="font-family: 'Tex Gyre Pagella'; font-size: 12px; fill: rgb(42, 63, 95); fill-opacity: 1; white-space: pre;">−0.1</text></g><g class="ytick"><text text-anchor="end" x="28.6" y="4.199999999999999" transform="translate(0,327.97)" style="font-family: 'Tex Gyre Pagella'; font-size: 12px; fill: rgb(42, 63, 95); fill-opacity: 1; white-space: pre;">−0.05</text></g><g class="ytick"><text text-anchor="end" x="28.6" y="4.199999999999999" transform="translate(0,252.96)" style="font-family: 'Tex Gyre Pagella'; font-size: 12px; fill: rgb(42, 63, 95); fill-opacity: 1; white-space: pre;">0</text></g><g class="ytick"><text text-anchor="end" x="28.6" y="4.199999999999999" transform="translate(0,177.94)" style="font-family: 'Tex Gyre Pagella'; font-size: 12px; fill: rgb(42, 63, 95); fill-opacity: 1; white-space: pre;">0.05</text></g><g class="ytick"><text text-anchor="end" x="28.6" y="4.199999999999999" transform="translate(0,102.92)" style="font-family: 'Tex Gyre Pagella'; font-size: 12px; fill: rgb(42, 63, 95); fill-opacity: 1; white-space: pre;">0.1</text></g><g class="ytick"><text text-anchor="end" x="28.6" y="4.199999999999999" transform="translate(0,27.91)" style="font-family: 'Tex Gyre Pagella'; font-size: 12px; fill: rgb(42, 63, 95); fill-opacity: 1; white-space: pre;">0.15</text></g></g><g class="overaxes-above"/></g></g><g class="polarlayer"/><g class="ternarylayer"/><g class="geolayer"/><g class="funnelarealayer"/><g class="pielayer"/><g class="treemaplayer"/><g class="sunburstlayer"/><g class="glimages"/><defs id="topdefs-db5353"><g class="clips"/></defs><g class="layer-above"><g class="imagelayer"/><g class="shapelayer"/></g><g class="infolayer"><g class="g-gtitle"/><g class="g-xtitle"/><g class="g-ytitle"/><g class="annotation" data-index="0" style="opacity: 1;"><g class="annotation-text-g" transform="rotate(0,943.04,131.11)"><g class="cursor-pointer" transform="translate(922, 121)"><rect class="bg" x="0.5" y="0.5" width="41" height="19" style="stroke-width: 1px; stroke: rgb(0, 0, 0); stroke-opacity: 0; fill: rgb(0, 0, 0); fill-opacity: 0;"/><text class="annotation-text" text-anchor="middle" x="20.90625" y="14.796875" style="font-family: 'Tex Gyre Pagella'; font-size: 12px; fill: rgb(230, 159, 0); fill-opacity: 1; white-space: pre;">French</text></g></g></g><g class="annotation" data-index="1" style="opacity: 1;"><g class="annotation-text-g" transform="rotate(0,946.54,328.99)"><g class="cursor-pointer" transform="translate(922, 319)"><rect class="bg" x="0.5" y="0.5" width="48" height="19" style="stroke-width: 1px; stroke: rgb(0, 0, 0); stroke-opacity: 0; fill: rgb(0, 0, 0); fill-opacity: 0;"/><text class="annotation-text" text-anchor="middle" x="24.46875" y="14.796875" style="font-family: 'Tex Gyre Pagella'; font-size: 12px; fill: rgb(0, 0, 0); fill-opacity: 1; white-space: pre;">German</text></g></g></g><g class="annotation" data-index="2" style="opacity: 1;"><g class="annotation-text-g" transform="rotate(0,942.04,182.79)"><g class="cursor-pointer" transform="translate(922, 173)"><rect class="bg" x="0.5" y="0.5" width="39" height="19" style="stroke-width: 1px; stroke: rgb(0, 0, 0); stroke-opacity: 0; fill: rgb(0, 0, 0); fill-opacity: 0;"/><text class="annotation-text" text-anchor="middle" x="19.75" y="14.796875" style="font-family: 'Tex Gyre Pagella'; font-size: 12px; fill: rgb(0, 158, 115); fill-opacity: 1; white-space: pre;">Italian</text></g></g></g><g class="annotation" data-index="3" style="opacity: 1;"><g class="annotation-text-g" transform="rotate(0,946.04,111.68)"><g class="cursor-pointer" transform="translate(922, 102)"><rect class="bg" x="0.5" y="0.5" width="47" height="19" style="stroke-width: 1px; stroke: rgb(0, 0, 0); stroke-opacity: 0; fill: rgb(0, 0, 0); fill-opacity: 0;"/><text class="annotation-text" text-anchor="middle" x="23.828125" y="14.796875" style="font-family: 'Tex Gyre Pagella'; font-size: 12px; fill: rgb(213, 94, 0); fill-opacity: 1; white-space: pre;">Spanish</text></g></g></g><g class="annotation" data-index="4" style="opacity: 1;"><g class="annotation-text-g" transform="rotate(0,955.54,48.93)"><g class="cursor-pointer" transform="translate(922, 39)"><rect class="bg" x="0.5" y="0.5" width="66" height="19" style="stroke-width: 1px; stroke: rgb(0, 0, 0); stroke-opacity: 0; fill: rgb(0, 0, 0); fill-opacity: 0;"/><text class="annotation-text" text-anchor="middle" x="33.34375" y="14.796875" style="font-family: 'Tex Gyre Pagella'; font-size: 12px; fill: rgb(204, 121, 167); fill-opacity: 1; white-space: pre;">UK English</text></g></g></g><g class="annotation" data-index="5" style="opacity: 1;"><g class="annotation-text-g" transform="rotate(0,954.04,21.23)"><g class="cursor-pointer" transform="translate(922, 11)"><rect class="bg" x="0.5" y="0.5" width="63" height="19" style="stroke-width: 1px; stroke: rgb(0, 0, 0); stroke-opacity: 0; fill: rgb(0, 0, 0); fill-opacity: 0;"/><text class="annotation-text" text-anchor="middle" x="32.125" y="14.796875" style="font-family: 'Tex Gyre Pagella'; font-size: 12px; fill: rgb(0, 0, 0); fill-opacity: 1; white-space: pre;">US English</text></g></g></g><g class="annotation" data-index="6" style="opacity: 1;"><g class="annotation-text-g" transform="rotate(0,945.54,426.99)"><g class="cursor-pointer" transform="translate(922, 417)"><rect class="bg" x="0.5" y="0.5" width="46" height="19" style="stroke-width: 1px; stroke: rgb(0, 0, 0); stroke-opacity: 0; fill: rgb(0, 0, 0); fill-opacity: 0;"/><text class="annotation-text" text-anchor="middle" x="23.53125" y="14.796875" style="font-family: 'Tex Gyre Pagella'; font-size: 12px; fill: rgb(86, 180, 233); fill-opacity: 1; white-space: pre;">Russian</text></g></g></g><g class="annotation" data-index="7" style="opacity: 1;"><g class="annotation-text-g" transform="rotate(0,959.04,160.36)"><g class="cursor-pointer" transform="translate(922, 150)"><rect class="bg" x="0.5" y="0.5" width="73" height="19" style="stroke-width: 1px; stroke: rgb(0, 0, 0); stroke-opacity: 0; fill: rgb(0, 0, 0); fill-opacity: 0;"/><text class="annotation-text" text-anchor="middle" x="37.265625" y="14.796875" style="font-family: 'Tex Gyre Pagella'; font-size: 12px; fill: rgb(0, 114, 178); fill-opacity: 1; white-space: pre;">Chinese Sim.</text></g></g></g></g></svg>